<?xml version="1.0" encoding="UTF-8" standalone="no"?>
<svg
   width="undefined"
   height="undefined"
   viewBox="0 0 512 512"
   version="1.1"
   id="svg6"
   sodipodi:docname="lightbulb.svg"
   inkscape:version="1.3.1 (9b9bdc1480, 2023-11-25, custom)"
   xmlns:inkscape="http://www.inkscape.org/namespaces/inkscape"
   xmlns:sodipodi="http://sodipodi.sourceforge.net/DTD/sodipodi-0.dtd"
   xmlns="http://www.w3.org/2000/svg"
   xmlns:svg="http://www.w3.org/2000/svg">
  <defs
     id="defs6" />
  <sodipodi:namedview
     id="namedview6"
     pagecolor="#ffffff"
     bordercolor="#000000"
     borderopacity="0.25"
     inkscape:showpageshadow="2"
     inkscape:pageopacity="0.0"
     inkscape:pagecheckerboard="0"
     inkscape:deskcolor="#d1d1d1"
     inkscape:zoom="1.5039062"
     inkscape:cx="256"
     inkscape:cy="256"
     inkscape:window-width="2480"
     inkscape:window-height="1371"
     inkscape:window-x="80"
     inkscape:window-y="32"
     inkscape:window-maximized="1"
     inkscape:current-layer="svg6" />
  <path
     fill="#ffe46a"
     d="m 455.363,97.650968 c 0,-39.08616 -30.68,-70.77146 -68.52534,-70.77146 -37.84534,0 -68.52533,31.68575 -68.52533,70.77146 0,17.675162 6.27446,33.836142 16.6476,46.238592 h -4.4e-4 l 14.98872,27.17034 c 3.9148,7.24815 5.36799,11.92829 11.92829,11.92829 h 48.8734 c 6.56073,0 8.49075,-4.92856 11.92829,-11.92829 l 16.03765,-27.17034 h -7.5e-4 c 10.37314,-12.40245 16.64805,-28.56343 16.64805,-46.238592 z"
     id="path1"
     style="stroke-width:0.445218" />
  <path
     fill="#fff0b7"
     d="m 322.5517,106.26996 c 0,-40.390662 30.44314,-73.773132 69.96428,-79.123772 a 67.161632,67.161632 0 0 0 -5.92986,-0.26668 c -37.84534,0 -68.52534,31.68575 -68.52534,70.77146 0,12.862352 3.32534,24.920652 9.13232,35.314272 -3.00522,-8.3474 -4.6414,-17.33324 -4.6414,-26.69528 z"
     id="path2"
     style="stroke-width:0.445218" />
  <path
     fill="#ffda00"
     d="m 455.363,97.802338 c 0,-13.99988 -3.93707,-27.04923 -10.72842,-38.0341 a 71.420146,71.420146 0 0 1 2.18913,17.54872 c 0,46.504832 -45.02849,84.378662 -101.27871,85.912442 l 4.40321,7.98232 c 3.9148,7.24816 5.36799,11.92829 11.92829,11.92829 h 48.8734 c 6.56073,0 8.49075,-4.92857 11.92829,-11.92829 l 16.03765,-27.17034 h -7.5e-4 c 10.37314,-12.4029 16.64805,-28.56387 16.64805,-46.239042 z"
     id="path3"
     style="stroke-width:0.445218" />
  <path
     fill="#faaf63"
     d="m 415.64686,109.79519 c 0.0663,-0.0583 0.13222,-0.11175 0.199,-0.17587 1.24083,-1.1874 2.26261,-3.08134 1.40734,-4.83817 -3.50787,-7.201862 -14.23363,-9.486722 -22.04899,-7.101682 -0.3958,0.12065 -0.77958,0.25199 -1.15222,0.39402 -4.25719,-2.48566 -9.54281,-3.08314 -14.24744,-1.58898 a 15.760284,15.760284 0 0 0 -1.63751,0.62063 c -2.57559,-1.50484 -5.58839,-2.25548 -8.59004,-1.9652 -6.28293,0.60773 -11.74264,5.703252 -12.82452,11.910492 l -0.49508,0.3063 c 4.28166,6.91913 15.55147,26.74471 16.27362,35.27598 0.91047,10.76271 7.5e-4,39.97749 -0.008,40.27134 l 5.33995,0.16873 c 0.0383,-1.21233 0.92873,-29.81984 -0.008,-40.89063 -0.41761,-4.93614 -3.43797,-12.80359 -8.97738,-23.38331 -2.58538,-4.93837 -5.09552,-9.2739 -6.61506,-11.83212 1.05073,-3.40413 4.27855,-6.16538 7.82962,-6.50865 1.08143,-0.10462 2.17845,0.0165 3.22828,0.32457 a 10.097552,10.097552 0 0 0 -1.03291,1.61971 c -1.8018,3.5328 -1.04894,7.9685 1.75104,10.31837 1.65844,1.39131 4.06796,1.90375 6.2896,1.33565 2.06893,-0.52892 3.66815,-1.88862 4.38718,-3.73048 0.64602,-1.65533 0.59125,-3.5662 -0.16339,-5.6792 a 13.65262,13.65262 0 0 0 -1.80314,-3.40815 12.525773,12.525773 0 0 1 6.05943,0.33124 c -0.76356,0.87931 -1.34768,1.8579 -1.7319,2.91886 -0.82099,2.27105 -0.45814,4.96996 0.94742,7.04423 1.21144,1.788 3.05242,2.85073 5.05234,2.91662 0.0668,0.002 0.13401,0.004 0.20034,0.004 1.75194,0 3.41483,-0.75331 4.7024,-2.13571 1.51241,-1.62372 2.28219,-3.87786 2.05869,-6.03003 -0.14202,-1.36816 -0.62865,-2.70649 -1.41223,-3.94775 5.44769,-0.98972 10.77651,0.85081 13.08185,3.64456 -1.39131,2.31512 -4.24827,7.17245 -7.20274,12.8156 -5.53896,10.58017 -8.56022,18.44762 -8.97738,23.38331 -0.93674,11.0708 -0.0463,39.6783 -0.008,40.89063 l 5.33995,-0.16874 c -0.009,-0.29384 -0.91893,-29.50684 -0.008,-40.27133 0.64958,-7.68046 9.84511,-24.50749 14.79773,-32.83841 z m -35.90999,-1.41179 c -0.12421,0.31877 -0.59258,0.4608 -0.73327,0.49686 -0.55652,0.14203 -1.1865,0.0383 -1.53244,-0.25155 -0.89711,-0.75286 -1.09212,-2.49276 -0.42607,-3.79859 a 4.9908976,4.9908976 0 0 1 0.82365,-1.15 c 0.71725,0.81386 1.28757,1.74793 1.65043,2.76392 0.29607,0.8281 0.37531,1.53555 0.2177,1.93936 z m 14.33159,0.29117 c -0.15628,0.16696 -0.47416,0.44166 -0.81876,0.43453 -0.36998,-0.012 -0.66293,-0.36463 -0.80495,-0.57388 -0.4421,-0.65314 -0.58413,-1.57027 -0.34549,-2.23009 0.27514,-0.76132 0.80629,-1.38419 1.42603,-1.8855 0.69009,0.77957 1.11349,1.61792 1.19675,2.41932 0.0641,0.61039 -0.19902,1.34766 -0.65358,1.83562 z"
     id="path4"
     style="stroke-width:0.445218" />
  <path
     fill="#6b83a5"
     d="m 412.98756,195.05361 h -52.55134 c -2.93844,0 -5.34263,2.40417 -5.34263,5.34262 v 3.09738 c 0,2.93844 2.40419,5.34262 5.34263,5.34262 h 16.97261 c -5.0608,1.88283 -10.40431,6.35994 -10.40431,11.55164 v 2.08362 c 4.06173,4.56527 7.84431,12.50217 15.04927,12.50217 h 9.74583 c 5.67565,0 9.70755,-6.12709 14.61919,-12.50217 v -2.08362 c 0,-5.1917 -5.0982,-9.66881 -10.03878,-11.55164 h 16.60753 c 2.93844,0 5.34263,-2.40418 5.34263,-5.34262 v -3.09738 c 0,-2.93845 -2.40419,-5.34262 -5.34263,-5.34262 z"
     id="path5"
     style="stroke-width:0.445218" />
  <path
     fill="#abbddb"
     d="m 416.76034,195.05361 h -60.0969 c -2.93845,0 -5.34262,-2.40418 -5.34262,-5.34263 v -3.09737 c 0,-2.93845 2.40417,-5.34263 5.34262,-5.34263 h 60.0969 c 2.93845,0 5.34263,2.40418 5.34263,5.34263 v 3.09737 c 0,2.93845 -2.40418,5.34263 -5.34263,5.34263 z m -3.11964,22.22307 v -3.09738 c 0,-2.93845 -2.40418,-5.34262 -5.34262,-5.34262 H 365.1257 c -2.93844,0 -5.34262,2.40417 -5.34262,5.34262 v 3.09738 c 0,2.93845 2.40418,5.34262 5.34262,5.34262 h 43.17238 c 2.93844,0 5.34262,-2.40417 5.34262,-5.34262 z"
     id="path6"
     style="stroke-width:0.445218" />
  <circle
     cx="151.14488"
     cy="287.85648"
     r="14.088003"
     id="circle1"
     style="stroke-width:0.587" />
  <path
     d="m 193.43824,377.08048 c -26.66155,0 -49.08495,-17.33412 -56.18178,-40.99022 a 4.696001,4.696001 0 0 1 4.59034,-5.96979 h 103.13005 a 4.696001,4.696001 0 0 1 4.59034,5.96979 c -7.03813,23.6561 -29.4674,40.99022 -56.12895,40.99022 z"
     id="path1-3"
     style="stroke-width:0.587" />
  <circle
     cx="235.6729"
     cy="287.85648"
     r="14.088003"
     id="circle2"
     style="stroke-width:0.587" />
  <circle
     cx="193.40889"
     cy="301.94446"
     r="122.09602"
     style="fill:none;stroke:#000000;stroke-width:18.784px;stroke-miterlimit:10"
     id="circle3" />
  <path
     style="fill:#ffe46a;fill-opacity:1;stroke-width:0.664935"
     d="M 184.18701,413.87905 C 158.60485,411.88358 133.28761,400.13493 114.45436,381.5191 80.065758,347.52751 71.29499,295.17143 92.799132,252.25075 c 15.714558,-31.36509 43.975528,-53.07206 78.797298,-60.52341 6.44633,-1.37942 8.96816,-1.55145 22.23214,-1.51658 12.87568,0.0339 15.87809,0.24304 21.54027,1.50082 15.50689,3.44465 31.05673,10.17252 42.95843,18.58661 7.65055,5.40866 20.89531,18.52581 26.02528,25.77451 8.4818,11.98489 14.40803,24.7496 17.86944,38.48963 2.75672,10.94277 3.53502,18.74321 3.1423,31.49342 -0.53238,17.28392 -3.70803,29.86668 -11.53254,45.6949 -15.03597,30.4163 -43.0466,52.42178 -76.06552,59.75796 -6.52404,1.44951 -22.44802,3.28664 -25.86279,2.98376 -0.58689,-0.0521 -4.05928,-0.32806 -7.71643,-0.61332 z m 24.6026,-38.48298 c 17.58057,-4.59798 32.23707,-17.33467 39.32441,-34.17343 2.0714,-4.92142 2.25464,-7.89287 0.59955,-9.72173 -1.22141,-1.34965 -1.66836,-1.36065 -55.27303,-1.36065 -58.29318,0 -55.35349,-0.17397 -56.46938,3.3419 -0.48878,1.54 1.09849,6.78816 3.51413,11.61914 8.06995,16.13887 23.06582,27.35551 41.79523,31.26208 6.4003,1.33497 19.53939,0.85553 26.50909,-0.96731 z m -51.86493,-74.43239 c 5.62456,-2.58015 8.31168,-6.86488 8.31168,-13.25333 0,-7.80265 -5.08606,-13.41487 -12.65325,-13.96224 -5.22442,-0.3779 -9.21219,1.12128 -12.16801,4.57448 -4.01436,4.68989 -4.76443,10.09248 -2.17367,15.65653 3.30177,7.09104 11.64876,10.21148 18.68325,6.98456 z m 86.51989,-1.1226 c 8.62519,-5.33255 8.71051,-18.37579 0.15724,-24.03607 -4.89664,-3.24045 -12.77416,-2.80687 -17.23747,0.94876 -8.29462,6.97946 -5.83392,20.88382 4.36813,24.68248 3.51576,1.30906 9.16024,0.60077 12.7121,-1.59517 z"
     id="path7" />
</svg>
