<?xml version="1.0" encoding="UTF-8" standalone="no"?>
<svg
   width="200"
   height="200"
   viewBox="0 0 200 200"
   version="1.1"
   id="svg34"
   sodipodi:docname="logo3.svg"
   inkscape:version="1.2.2 (b0a8486541, 2022-12-01)"
   xmlns:inkscape="http://www.inkscape.org/namespaces/inkscape"
   xmlns:sodipodi="http://sodipodi.sourceforge.net/DTD/sodipodi-0.dtd"
   xmlns="http://www.w3.org/2000/svg"
   xmlns:svg="http://www.w3.org/2000/svg">
  <defs
     id="defs38" />
  <sodipodi:namedview
     id="namedview36"
     pagecolor="#ffffff"
     bordercolor="#000000"
     borderopacity="0.25"
     inkscape:showpageshadow="2"
     inkscape:pageopacity="0.0"
     inkscape:pagecheckerboard="0"
     inkscape:deskcolor="#d1d1d1"
     showgrid="false"
     inkscape:zoom="1.8154967"
     inkscape:cx="-29.193113"
     inkscape:cy="142.38528"
     inkscape:window-width="2480"
     inkscape:window-height="1371"
     inkscape:window-x="80"
     inkscape:window-y="32"
     inkscape:window-maximized="1"
     inkscape:current-layer="svg34" />
  <g
     id="layer1"
     transform="matrix(3.7795276,0,0,3.7795276,0.04144517,-0.6033896)">
    <g
       id="g1018"
       transform="matrix(0.11500794,0,0,0.11500794,-67.654597,-74.108474)"
       style="display:inline">
      <g
         id="g1016">
        <path
           class="st8"
           d="m 356.76,601.69 v 578.15 h 898.53 V 601.69 Z M 944.8,785.26 c 0,-1.03 0.26,-1.98 0.78,-2.87 0.3,-0.38 0.59,-0.77 0.89,-1.15 0.71,-0.7 1.54,-1.19 2.51,-1.46 0.5,-0.07 1.01,-0.14 1.51,-0.2 0.78,-0.03 1.51,0.13 2.19,0.49 0.7,0.23 1.31,0.62 1.83,1.17 0.55,0.51 0.95,1.12 1.17,1.83 0.36,0.68 0.52,1.41 0.49,2.19 v 0.18 c 0,1.03 -0.26,1.98 -0.78,2.87 -0.3,0.38 -0.59,0.77 -0.89,1.15 -0.71,0.7 -1.54,1.19 -2.51,1.46 -0.5,0.07 -1.01,0.14 -1.51,0.2 -0.78,0.03 -1.51,-0.13 -2.19,-0.49 -0.7,-0.23 -1.31,-0.62 -1.83,-1.17 -0.55,-0.51 -0.95,-1.12 -1.17,-1.83 -0.36,-0.68 -0.52,-1.41 -0.49,-2.19 z m -273.22,23.86 c 7.32,0 7.31,11.36 0,11.36 -7.32,0 -7.3,-11.36 0,-11.36 z m -7.52,28.55 c 7.32,0 7.31,11.36 0,11.36 -7.32,-0.01 -7.3,-11.36 0,-11.36 z m -8.68,37.56 c -1.76,-3.36 -0.17,-8.57 4.78,-8.57 4.02,0 5.81,3.42 5.42,6.5 1.76,3.36 0.17,8.57 -4.78,8.57 -4.01,0 -5.81,-3.41 -5.42,-6.5 z m 7.93,41.47 c -0.76,-0.03 -1.46,-0.26 -2.11,-0.67 -0.66,-0.36 -1.19,-0.84 -1.59,-1.46 -0.5,-0.55 -0.84,-1.19 -1.02,-1.93 -0.05,-0.17 -0.09,-0.34 -0.12,-0.52 -0.12,-0.67 -0.2,-1.34 -0.27,-2.01 -0.05,-0.42 -0.07,-0.85 -0.08,-1.27 -0.02,-0.84 0,-1.67 0,-2.51 0,-0.39 0.07,-0.76 0.15,-1.12 -1.89,-3.35 -0.31,-8.72 4.71,-8.72 4.03,0 5.82,3.43 5.42,6.53 0.25,0.35 0.45,0.72 0.59,1.13 0.36,0.68 0.52,1.41 0.49,2.19 0,1.09 -0.01,2.18 0.06,3.26 0,0.01 0,0.02 0.01,0.03 0.27,1.01 0.27,2.01 0,3.02 -0.19,0.45 -0.38,0.9 -0.57,1.36 -0.5,0.85 -1.18,1.53 -2.04,2.04 -0.45,0.19 -0.9,0.38 -1.36,0.57 -0.76,0.21 -1.52,0.25 -2.27,0.08 z m 11.45,21.85 c -2.91,0 -4.64,-1.8 -5.24,-3.96 -3.6,-0.74 -4.91,-4.58 -3.9,-7.58 -1.43,-3.36 0.21,-8.16 4.97,-8.16 4.56,0 6.27,4.41 5.15,7.73 0.1,0.23 0.15,0.48 0.22,0.72 6.08,1.18 5.68,11.25 -1.2,11.25 z m 7.05,-151.57 c -0.08,-0.35 -0.15,-0.7 -0.14,-1.08 v -0.54 c 0,-1.03 0.26,-1.98 0.78,-2.87 0.3,-0.38 0.59,-0.77 0.89,-1.15 0.71,-0.7 1.54,-1.19 2.51,-1.46 0.5,-0.07 1.01,-0.14 1.51,-0.2 0.78,-0.03 1.51,0.13 2.19,0.49 0.7,0.23 1.31,0.62 1.83,1.17 0.55,0.51 0.95,1.12 1.17,1.83 0.36,0.68 0.52,1.41 0.49,2.19 v 0.54 c 0,1.02 -0.26,1.98 -0.78,2.87 -0.22,0.29 -0.45,0.58 -0.67,0.86 0.05,0.36 0.07,0.73 0.05,1.1 0.03,2.86 -1.78,5.75 -5.47,5.75 -3.46,0 -5.24,-2.53 -5.43,-5.21 -0.16,-1.51 0.19,-3.08 1.07,-4.29 z m 12.12,182.86 c 0,1.54 -0.64,2.9 -1.66,4.02 -1.02,1.11 -2.55,1.6 -4.02,1.66 -0.78,0.03 -1.51,-0.13 -2.19,-0.49 -0.7,-0.23 -1.31,-0.62 -1.83,-1.17 -1.03,-1.03 -1.66,-2.56 -1.66,-4.02 v -6.26 c -1.62,-3.36 0,-8.39 4.86,-8.39 2.45,0 4.06,1.28 4.87,2.98 1,1.03 1.62,2.53 1.62,3.97 v 7.7 z m 17.38,20.63 c -0.19,0.45 -0.38,0.9 -0.57,1.36 -0.69,1.31 -2.02,2.16 -3.39,2.61 -0.75,0.24 -1.51,0.27 -2.26,0.1 -0.76,-0.03 -1.46,-0.26 -2.11,-0.67 -0.66,-0.36 -1.19,-0.84 -1.59,-1.46 -0.5,-0.55 -0.84,-1.19 -1.02,-1.93 -0.56,-2.68 -1.06,-5.39 -1.29,-8.12 -0.13,-1.48 0.69,-2.96 1.66,-4.02 1.02,-1.11 2.55,-1.6 4.02,-1.66 0.78,-0.03 1.51,0.13 2.19,0.49 0.7,0.23 1.31,0.62 1.83,1.17 0.39,0.36 0.66,0.78 0.89,1.23 0.81,1.19 1.13,2.68 0.97,4.13 0.2,1.26 0.42,2.51 0.68,3.76 0.26,0.99 0.26,2 -0.01,3.01 z m -3.3,-225.62 c -7.32,0 -7.31,-11.36 0,-11.36 7.32,0 7.31,11.36 0,11.36 z m 21.56,248.81 c -7.32,0 -7.31,-11.36 0,-11.36 7.32,0.01 7.31,11.36 0,11.36 z m 7.47,-272.83 c -0.14,0.5 -0.35,0.96 -0.6,1.39 -0.03,0.05 -0.03,0.1 -0.06,0.14 -0.3,0.38 -0.59,0.77 -0.89,1.15 -0.71,0.7 -1.54,1.19 -2.51,1.46 -0.5,0.07 -1.01,0.14 -1.51,0.2 -0.78,0.03 -1.51,-0.13 -2.19,-0.49 -0.7,-0.23 -1.31,-0.62 -1.83,-1.17 -0.37,-0.34 -0.64,-0.74 -0.86,-1.17 -0.14,-0.18 -0.25,-0.32 -0.25,-0.32 0,0 0,-0.01 -0.01,-0.01 0,-0.01 -0.57,-1.36 -0.58,-1.36 0,0 0,-0.01 0,-0.01 0,-0.01 -0.2,-1.51 -0.2,-1.52 0,0 0,-0.01 0,-0.01 0,0 0,0 0,-0.01 0,0 0,0 0,0 0.03,-0.25 0.07,-0.5 0.1,-0.75 0.03,-0.25 0.06,-0.51 0.1,-0.76 0,0 0,0 0,0 0,0 0,0 0,-0.01 0.06,-0.23 0.34,-0.81 0.3,-0.71 0.01,-0.02 0.18,-0.54 0.33,-0.75 0.01,-0.01 0.01,-0.02 0.02,-0.02 0.14,-0.2 0.36,-0.46 0.45,-0.58 0.12,-0.15 0.3,-0.39 0.45,-0.58 0.01,-0.02 0.03,-0.03 0.04,-0.05 0.04,-0.04 0.08,-0.08 0.12,-0.12 0.51,-0.55 1.12,-0.95 1.83,-1.17 0.44,-0.26 0.92,-0.39 1.43,-0.39 0.5,-0.14 1.01,-0.14 1.51,0 0.51,0 0.99,0.13 1.43,0.39 0.7,0.23 1.31,0.62 1.83,1.17 0.3,0.38 0.59,0.77 0.89,1.15 0.19,0.45 0.38,0.9 0.57,1.36 0.02,0.16 0.04,0.33 0.07,0.49 0.14,0.5 0.23,1.02 0.23,1.56 -0.07,0.5 -0.14,1 -0.21,1.5 z m 28.8,281.03 c -0.23,0.7 -0.62,1.31 -1.17,1.83 -0.2,0.24 -0.39,0.48 -0.59,0.72 -0.07,0.44 -0.14,0.87 -0.21,1.31 -0.1,0.85 -0.18,1.71 -0.16,2.57 0.03,1.53 -0.66,2.92 -1.66,4.02 -1.02,1.12 -2.55,1.6 -4.02,1.66 -1.41,0.06 -3.03,-0.68 -4.02,-1.66 -1.05,-1.05 -1.63,-2.54 -1.66,-4.02 -0.02,-0.93 0.05,-1.86 0.15,-2.79 -0.08,-0.2 -0.17,-0.38 -0.22,-0.59 -0.24,-0.75 -0.27,-1.51 -0.1,-2.26 0.03,-0.76 0.26,-1.46 0.67,-2.11 0.16,-0.24 0.34,-0.48 0.51,-0.71 0.03,-0.26 0.06,-0.51 0.08,-0.77 0,-1.03 0.26,-1.98 0.78,-2.87 0.3,-0.38 0.59,-0.77 0.89,-1.15 1.02,-1.11 2.55,-1.6 4.02,-1.66 0.95,-0.04 1.98,0.3 2.85,0.81 0.54,0.13 1.06,0.32 1.55,0.6 0.38,0.3 0.77,0.59 1.15,0.89 0.55,0.51 0.95,1.12 1.17,1.83 0.36,0.68 0.52,1.41 0.49,2.19 0.02,0.75 -0.14,1.48 -0.5,2.16 z m 1.75,-297.28 c -0.02,0.54 -0.18,1.04 -0.4,1.52 -0.06,0.17 -0.12,0.33 -0.16,0.5 -0.27,0.96 -0.76,1.8 -1.46,2.51 -0.38,0.3 -0.77,0.59 -1.15,0.89 -0.45,0.26 -0.92,0.45 -1.41,0.58 -0.05,0.56 -0.17,1.1 -0.44,1.6 -0.23,0.7 -0.62,1.31 -1.17,1.83 -0.51,0.55 -1.12,0.94 -1.83,1.17 -0.68,0.36 -1.41,0.52 -2.19,0.49 h -0.18 c -1.02,0 -1.98,-0.26 -2.87,-0.78 -0.38,-0.3 -0.77,-0.59 -1.15,-0.89 -0.7,-0.71 -1.19,-1.54 -1.46,-2.51 -0.07,-0.5 -0.14,-1.01 -0.2,-1.51 -0.03,-0.78 0.13,-1.51 0.49,-2.19 0.23,-0.7 0.62,-1.31 1.17,-1.83 0.51,-0.55 1.12,-0.95 1.83,-1.17 0.29,-0.15 0.59,-0.25 0.9,-0.33 0.03,-0.29 0.07,-0.59 0.16,-0.88 0.05,-0.23 0.11,-0.46 0.2,-0.68 0.21,-0.56 0.45,-1.1 0.69,-1.65 0.04,-0.1 0.09,-0.2 0.14,-0.3 0.5,-0.85 1.18,-1.53 2.04,-2.04 0.45,-0.19 0.9,-0.38 1.36,-0.57 1.01,-0.27 2.01,-0.27 3.02,0 0.45,0.19 0.9,0.38 1.36,0.57 0.66,0.36 1.19,0.84 1.59,1.46 0.5,0.55 0.84,1.19 1.02,1.93 0.24,0.78 0.27,1.53 0.1,2.28 z m 25.27,309.56 c -0.27,0.96 -0.76,1.8 -1.46,2.51 -0.38,0.3 -0.77,0.59 -1.15,0.89 -0.65,0.42 -1.36,0.64 -2.11,0.67 -0.75,0.17 -1.51,0.14 -2.26,-0.1 -0.74,-0.18 -1.38,-0.51 -1.93,-1.02 -0.62,-0.4 -1.11,-0.93 -1.46,-1.59 -0.66,-1.24 -1.19,-2.55 -1.81,-3.81 -0.51,-0.89 -0.77,-1.84 -0.78,-2.87 0.07,-0.5 0.14,-1.01 0.2,-1.51 0.27,-0.96 0.76,-1.8 1.46,-2.51 0.38,-0.3 0.77,-0.59 1.15,-0.89 0.65,-0.42 1.36,-0.64 2.11,-0.67 0.75,-0.17 1.51,-0.14 2.26,0.1 0.33,0.08 0.63,0.2 0.93,0.34 3.79,0.38 5.36,3.95 4.67,7 0.23,0.62 0.39,1.26 0.39,1.94 -0.08,0.51 -0.14,1.02 -0.21,1.52 z m -1.13,-307.53 c -2.12,0 -3.6,-0.96 -4.49,-2.32 -0.02,0.01 -0.04,0.02 -0.07,0.03 -0.27,0.04 -0.54,0.07 -0.81,0.11 -0.12,0.28 -0.26,0.55 -0.43,0.81 -0.11,0.63 -0.28,1.24 -0.62,1.81 -0.3,0.38 -0.59,0.77 -0.89,1.15 -0.71,0.7 -1.54,1.19 -2.51,1.46 -0.5,0.07 -1.01,0.14 -1.51,0.2 -0.78,0.03 -1.51,-0.13 -2.19,-0.49 -0.7,-0.23 -1.31,-0.62 -1.83,-1.17 -0.55,-0.51 -0.95,-1.12 -1.17,-1.83 -0.36,-0.68 -0.52,-1.41 -0.49,-2.19 V 723 c 0,-1.02 0.26,-1.98 0.78,-2.87 0.3,-0.38 0.59,-0.77 0.89,-1.15 0.14,-0.14 0.32,-0.24 0.47,-0.36 0.73,-1.14 1.88,-2 3.46,-2.28 0.11,-0.35 0.25,-0.69 0.44,-1.01 0.3,-0.38 0.59,-0.77 0.89,-1.15 0.71,-0.7 1.54,-1.19 2.51,-1.46 0.5,-0.07 1.01,-0.14 1.51,-0.2 0.78,-0.03 1.51,0.13 2.19,0.49 0.7,0.23 1.31,0.62 1.83,1.17 0.37,0.34 0.64,0.75 0.87,1.17 0.37,-0.07 0.77,-0.12 1.19,-0.12 7.3,0.02 7.29,11.38 -0.02,11.38 z m 26.28,309.34 c -7.32,0 -7.31,-11.36 0,-11.36 7.32,0.01 7.31,11.36 0,11.36 z m 32.08,-1.72 c -7.32,0 -7.31,-11.36 0,-11.36 7.32,0 7.3,11.36 0,11.36 z m 14.16,-312.44 c -0.05,1.13 -0.39,2.19 -1.01,3.17 -0.08,0.15 -0.19,0.26 -0.28,0.39 -0.34,0.69 -0.76,1.33 -1.35,1.87 -0.77,0.83 -1.69,1.42 -2.74,1.76 -1.02,0.53 -2.11,0.78 -3.28,0.73 h -0.34 c -0.02,0 -0.03,-0.01 -0.05,-0.01 -0.02,0 -0.03,0.01 -0.05,0.01 -0.75,-0.1 -1.51,-0.2 -2.26,-0.3 -1.11,-0.26 -2.07,-0.77 -2.9,-1.52 -0.93,-0.6 -1.66,-1.4 -2.19,-2.39 -0.21,-0.33 -0.34,-0.68 -0.48,-1.02 -0.19,-0.02 -0.38,-0.04 -0.57,-0.09 -0.51,0.48 -1.08,0.86 -1.69,1.15 -0.04,0.02 -0.09,0.04 -0.13,0.06 -0.21,0.1 -0.4,0.22 -0.63,0.3 -1.02,0.53 -2.11,0.78 -3.28,0.73 -1.17,0.04 -2.27,-0.2 -3.28,-0.73 -1.06,-0.34 -1.97,-0.93 -2.74,-1.76 -0.25,-0.27 -0.66,-0.85 -0.7,-0.91 -0.02,-0.02 -0.05,-0.07 -0.07,-0.09 -0.03,-0.04 -0.07,-0.08 -0.1,-0.12 -0.16,-0.2 -0.36,-0.46 -0.52,-0.68 -0.01,-0.01 -0.01,-0.02 -0.02,-0.03 -0.02,0.04 -0.04,0.07 -0.06,0.11 -0.17,0.28 -0.36,0.54 -0.56,0.8 -0.19,0.25 -0.38,0.48 -0.6,0.7 -0.14,0.14 -0.27,0.27 -0.42,0.4 -0.37,0.33 -0.79,0.62 -1.24,0.88 -0.03,0.02 -0.06,0.04 -0.1,0.06 -1.14,0.63 -2.48,1.03 -4.09,1.03 -4.3,0 -6.84,-2.62 -7.75,-5.8 -0.01,0 -0.03,0 -0.04,0.01 -0.33,0.01 -0.63,-0.06 -0.94,-0.11 -0.27,0.2 -0.56,0.38 -0.85,0.54 -0.1,0.27 -0.17,0.56 -0.31,0.82 -0.02,0.03 -0.03,0.07 -0.05,0.11 -0.22,0.39 -0.48,0.75 -0.76,1.1 -0.05,0.07 -0.09,0.14 -0.14,0.2 -0.26,0.31 -0.57,0.57 -0.88,0.84 -0.1,0.08 -0.18,0.19 -0.28,0.26 -0.3,0.23 -0.65,0.41 -0.99,0.6 -0.15,0.08 -0.27,0.18 -0.42,0.25 -0.35,0.16 -0.75,0.26 -1.14,0.37 -0.18,0.05 -0.34,0.13 -0.53,0.17 -0.6,0.13 -1.25,0.19 -1.93,0.19 -0.69,0 -1.33,-0.07 -1.94,-0.19 -0.19,-0.04 -0.35,-0.12 -0.53,-0.17 -0.39,-0.11 -0.79,-0.21 -1.15,-0.37 -0.16,-0.07 -0.29,-0.18 -0.44,-0.26 -0.34,-0.18 -0.68,-0.36 -0.98,-0.59 -0.11,-0.08 -0.19,-0.18 -0.29,-0.27 -0.31,-0.26 -0.61,-0.53 -0.87,-0.83 -0.06,-0.07 -0.09,-0.14 -0.15,-0.21 -0.28,-0.35 -0.54,-0.71 -0.75,-1.1 -0.02,-0.03 -0.03,-0.07 -0.05,-0.11 -0.73,-1.37 -1.1,-2.93 -1.08,-4.51 0,0 0,0 0,0 -0.03,-2.87 1.23,-5.71 3.7,-7.3 0.35,-0.88 0.86,-1.68 1.58,-2.35 0.77,-0.83 1.69,-1.42 2.74,-1.76 0.3,-0.16 0.62,-0.24 0.93,-0.34 0.44,-0.57 0.88,-1.14 1.32,-1.7 1.06,-1.06 2.32,-1.79 3.76,-2.19 0.75,-0.1 1.51,-0.2 2.26,-0.3 1.17,-0.04 2.27,0.2 3.28,0.73 1.06,0.34 1.97,0.93 2.74,1.76 0.66,0.62 1.12,1.35 1.47,2.15 0.7,0.8 1.23,1.71 1.6,2.7 3.59,0.05 5.97,1.92 7.17,4.41 0.33,-0.43 0.67,-0.86 1,-1.29 0.77,-0.83 1.69,-1.42 2.74,-1.76 0.66,-0.39 1.38,-0.58 2.15,-0.58 0.72,-0.16 1.43,-0.15 2.15,-0.07 0.43,-0.33 0.86,-0.67 1.3,-1 0.68,-0.29 1.36,-0.57 2.03,-0.86 0.06,-0.01 0.13,-0.03 0.19,-0.04 0.65,-0.11 1.69,-0.26 2.34,-0.31 0.11,-0.01 0.22,-0.01 0.33,-0.01 0.04,0 0.09,0.01 0.13,0.01 0.75,0.1 1.51,0.2 2.26,0.3 0.06,0.01 0.12,0.02 0.18,0.03 0.12,0.03 0.24,0.06 0.36,0.11 1.11,0.26 2.07,0.77 2.9,1.52 0.64,0.38 1.15,0.89 1.53,1.53 0.46,0.46 0.77,1 0.98,1.6 0.58,0.04 1.17,0.08 1.75,0.24 0.68,0.29 1.36,0.57 2.03,0.86 1.28,0.76 2.3,1.78 3.06,3.06 0.29,0.68 0.57,1.36 0.86,2.03 0.35,1.12 0.4,2.25 0.15,3.38 z m 12.47,303.02 c -0.62,0.52 -1.31,0.93 -2.11,1.15 -0.5,0.07 -1.01,0.14 -1.51,0.2 -0.78,0.03 -1.51,-0.13 -2.19,-0.49 -0.7,-0.23 -1.31,-0.62 -1.83,-1.17 -0.55,-0.51 -0.95,-1.12 -1.17,-1.83 -0.36,-0.68 -0.52,-1.41 -0.49,-2.19 v -0.18 c 0,-1.02 0.26,-1.98 0.78,-2.87 0.3,-0.38 0.59,-0.77 0.89,-1.15 0.71,-0.7 1.54,-1.19 2.51,-1.46 l 0.21,-0.03 c 0.87,-0.71 2.02,-1.17 3.47,-1.17 6.79,0.01 7.26,9.79 1.44,11.19 z m 8.56,-294.35 c -0.05,2.8 -1.87,5.57 -5.48,5.57 -2.63,0 -4.28,-1.47 -5.02,-3.34 -0.26,-0.47 -0.43,-0.99 -0.55,-1.52 -0.01,-0.01 -0.03,-0.01 -0.04,-0.02 -0.12,-0.05 -0.26,-0.08 -0.38,-0.14 -0.7,-0.23 -1.31,-0.62 -1.83,-1.17 -0.55,-0.51 -0.95,-1.12 -1.17,-1.83 -0.36,-0.68 -0.52,-1.41 -0.49,-2.19 v -0.72 c 0,-1.02 0.26,-1.98 0.78,-2.87 0.3,-0.38 0.59,-0.77 0.89,-1.15 0.71,-0.7 1.54,-1.19 2.51,-1.46 0.5,-0.07 1.01,-0.14 1.51,-0.2 0.78,-0.03 1.51,0.13 2.19,0.49 0.7,0.23 1.31,0.62 1.83,1.17 0.31,0.29 0.56,0.62 0.77,0.97 0.66,0.71 1.04,1.6 1.26,2.54 1.13,0.55 1.92,1.47 2.41,2.54 0.09,0.15 0.13,0.31 0.21,0.46 0.01,0.02 0.01,0.03 0.02,0.05 0.37,0.8 0.59,1.68 0.6,2.57 0,0.05 0.01,0.11 0.01,0.16 -0.02,0.04 -0.03,0.07 -0.03,0.09 z m 14.37,14.1 c -0.93,-0.6 -1.66,-1.4 -2.19,-2.39 -0.26,-0.36 -0.44,-0.78 -0.63,-1.18 -0.77,-1.33 -1.16,-2.76 -1.16,-4.3 0.1,-0.75 0.2,-1.51 0.3,-2.26 0.4,-1.44 1.13,-2.7 2.19,-3.76 0.57,-0.44 1.15,-0.89 1.72,-1.33 0.98,-0.62 2.03,-0.96 3.17,-1.01 1.13,-0.25 2.26,-0.2 3.4,0.15 1.11,0.26 2.07,0.77 2.9,1.52 0.93,0.6 1.66,1.4 2.19,2.39 0.2,0.4 0.37,0.81 0.63,1.18 0.77,1.33 1.16,2.76 1.16,4.3 -0.1,0.75 -0.2,1.51 -0.3,2.26 -0.4,1.44 -1.13,2.7 -2.19,3.76 -0.57,0.44 -1.15,0.89 -1.72,1.33 -0.98,0.62 -2.03,0.96 -3.17,1.01 -1.13,0.25 -2.26,0.2 -3.4,-0.15 -1.11,-0.26 -2.07,-0.76 -2.9,-1.52 z m 9.88,266.38 c -7.32,0 -7.31,-11.36 0,-11.36 7.32,0.01 7.3,11.36 0,11.36 z m 22.7,-23.59 c -0.03,0.76 -0.26,1.46 -0.67,2.11 -1.75,4.11 -3.96,8.01 -6.34,11.78 -1.7,2.68 -4.97,3.52 -7.77,2.04 -1.23,-0.65 -2.25,-2.08 -2.61,-3.39 -0.38,-1.37 -0.2,-3.16 0.57,-4.38 2.39,-3.77 4.6,-7.67 6.34,-11.78 0.56,-1.32 2.09,-2.19 3.39,-2.61 1.46,-0.47 3.06,-0.12 4.38,0.57 1.23,0.65 2.25,2.08 2.61,3.39 0.23,0.77 0.27,1.52 0.1,2.27 z M 930.55,768.2 c -7.32,0 -7.31,-11.36 0,-11.36 7.32,0 7.31,11.36 0,11.36 z m 27.49,197.98 -0.57,1.36 c -0.36,0.66 -0.84,1.19 -1.46,1.59 -0.55,0.5 -1.19,0.84 -1.93,1.02 -1.5,0.4 -3.29,0.25 -4.62,-0.6 -0.45,-0.28 -0.89,-0.59 -1.26,-0.97 -0.02,-0.02 -0.04,-0.05 -0.07,-0.07 -0.28,-0.32 -0.69,-0.85 -0.93,-1.2 -0.01,-0.01 -0.02,-0.03 -0.02,-0.05 -0.1,-0.08 -0.21,-0.15 -0.3,-0.23 -0.06,-0.05 -0.12,-0.11 -0.18,-0.17 -0.02,-0.02 -0.03,-0.04 -0.05,-0.06 -0.3,-0.38 -0.59,-0.77 -0.89,-1.15 -0.03,-0.04 -0.06,-0.08 -0.08,-0.12 -0.27,-0.47 -0.5,-0.99 -0.64,-1.51 -0.07,-0.28 -0.09,-0.59 -0.12,-0.85 -0.03,-0.21 -0.1,-0.58 -0.11,-0.86 0,-1.03 0.26,-1.98 0.78,-2.87 0,0 0,0 0,0 0.03,-0.15 0.02,-0.3 0.06,-0.46 l 0.57,-1.36 c 0.5,-0.85 1.18,-1.53 2.04,-2.04 0.45,-0.19 0.9,-0.38 1.36,-0.57 0.75,-0.24 1.51,-0.27 2.26,-0.1 0.76,0.03 1.46,0.26 2.11,0.67 0.66,0.36 1.19,0.84 1.59,1.46 0.5,0.55 0.84,1.19 1.02,1.93 0.14,0.64 0.23,1.3 0.35,1.95 0.09,0.12 0.19,0.26 0.27,0.37 0.05,0.08 0.11,0.15 0.15,0.23 0.13,0.25 0.25,0.58 0.35,0.81 0.11,0.25 0.25,0.54 0.34,0.81 0.25,1.03 0.25,2.04 -0.02,3.04 z m 27.58,-86.51 v 0 c -0.17,0.14 -0.35,0.25 -0.53,0.38 v 0 c -0.11,0.07 -0.22,0.14 -0.33,0.2 0,0 0,0 0,0 -0.34,0.21 -0.7,0.39 -1.09,0.55 0.13,0.16 0.28,0.31 0.39,0.48 1.17,1.81 1.42,4.52 0.86,6.56 -0.52,1.87 -2.08,4.24 -3.91,5.09 -0.66,0.3 -1.26,0.68 -1.86,1.07 -0.18,0.14 -0.37,0.25 -0.55,0.38 -0.26,0.22 -0.51,0.45 -0.77,0.67 -0.11,0.16 -0.26,0.29 -0.38,0.44 0.15,0.16 0.3,0.32 0.43,0.51 0.5,0.55 0.84,1.19 1.02,1.93 0.24,0.75 0.27,1.51 0.1,2.26 -0.02,0.38 -0.08,0.74 -0.19,1.09 -0.03,0.22 -0.03,0.44 -0.09,0.66 -0.19,0.45 -0.38,0.9 -0.57,1.36 -0.23,0.38 -0.5,0.72 -0.8,1.03 0.12,0.45 0.22,0.9 0.24,1.37 0.25,1.13 0.2,2.26 -0.15,3.4 -0.12,0.69 -0.25,1.37 -0.36,2.05 -0.4,1.44 -1.13,2.7 -2.19,3.76 l -1.72,1.33 c -0.35,0.2 -0.73,0.31 -1.1,0.46 2.09,2.39 2.65,5.97 1.6,8.98 4.17,4.35 2.73,13.32 -4.3,14.52 -0.53,0.13 -1.11,0.21 -1.71,0.25 0.41,1.89 0.82,3.78 1.2,5.68 0.95,4.69 -1.31,8.98 -5.95,10.48 -4.17,1.35 -9.59,-1.57 -10.48,-5.95 -0.74,-3.63 -1.56,-7.24 -2.3,-10.87 -0.95,-4.69 1.31,-8.98 5.95,-10.48 1.06,-0.34 2.2,-0.4 3.33,-0.24 0.09,-0.27 0.17,-0.54 0.28,-0.79 -3.37,-4.08 -2.32,-11.37 3,-13.54 -0.46,-0.45 -0.87,-0.95 -1.19,-1.55 -0.62,-0.98 -0.96,-2.03 -1.01,-3.17 -0.14,-0.62 -0.17,-1.23 -0.13,-1.85 -0.28,-2.5 0.39,-5.12 2.03,-7 0.08,-0.09 0.16,-0.17 0.24,-0.26 0.21,-0.21 0.42,-0.42 0.65,-0.61 0.26,-0.22 0.54,-0.42 0.84,-0.61 0.03,-0.02 0.06,-0.03 0.09,-0.05 0.98,-0.6 2.16,-0.99 3.52,-1.12 0.01,-0.04 0.01,-0.09 0.02,-0.13 0.02,-0.09 0.04,-0.17 0.08,-0.26 0.01,-0.03 0.05,-0.12 0.07,-0.18 -1.19,-0.28 -2.11,-0.91 -2.78,-1.74 -0.12,-0.1 -0.24,-0.17 -0.35,-0.27 -3.13,-2.87 -3.15,-8.05 -0.61,-11.29 -0.16,-1.1 -0.29,-2.2 -0.31,-3.31 -0.09,-4.32 3.25,-7.6 7.24,-8.34 0.22,-0.05 0.44,-0.07 0.67,-0.1 0,-0.18 0.01,-0.36 0.02,-0.55 -0.53,-0.03 -1.05,-0.08 -1.56,-0.19 -2.03,-0.46 -4.06,-2.15 -5.09,-3.91 -1.01,-1.72 -1.61,-4.62 -0.86,-6.56 1.05,-2.7 2.28,-5.23 3.76,-7.71 0.84,-1.4 2.01,-2.42 3.33,-3.11 -0.39,-0.29 -0.81,-0.57 -1.16,-0.9 -0.02,-0.02 -0.04,-0.04 -0.05,-0.06 -0.09,-0.1 -0.17,-0.21 -0.26,-0.33 -0.01,-0.01 -0.02,-0.02 -0.03,-0.03 -0.7,-0.71 -1.19,-1.54 -1.46,-2.51 -0.07,-0.5 -0.14,-1.01 -0.2,-1.51 0,-0.68 0.16,-1.31 0.38,-1.93 -0.01,-0.08 -0.02,-0.16 -0.02,-0.24 0,-0.19 -0.01,-0.38 -0.02,-0.56 -1.04,-0.1 -1.93,-0.41 -2.63,-0.92 -5.7,-2.55 -6.13,-11.19 -1.32,-14.72 -0.36,-0.14 -0.72,-0.28 -1.1,-0.34 -0.96,-0.27 -1.8,-0.76 -2.51,-1.46 -0.3,-0.38 -0.59,-0.77 -0.89,-1.15 -0.51,-0.89 -0.77,-1.84 -0.78,-2.87 0.07,-0.5 0.14,-1.01 0.2,-1.51 0.07,-0.31 0.19,-0.6 0.33,-0.88 -0.05,-0.29 -0.09,-0.57 -0.08,-0.87 V 816 c 0,-1.02 0.26,-1.98 0.78,-2.87 0.3,-0.38 0.59,-0.77 0.89,-1.15 0.71,-0.7 1.54,-1.19 2.51,-1.46 0.5,-0.07 1.01,-0.14 1.51,-0.2 0.78,-0.03 1.51,0.13 2.19,0.49 0.7,0.23 1.31,0.62 1.83,1.17 0.55,0.51 0.95,1.12 1.17,1.83 0.36,0.68 0.52,1.41 0.49,2.19 v 2.08 c 0,0.17 -0.04,0.32 -0.06,0.48 0.09,0.12 0.19,0.25 0.28,0.37 0.51,0.89 0.77,1.84 0.78,2.87 -0.07,0.5 -0.14,1.01 -0.2,1.51 -0.18,0.74 -0.51,1.38 -1.02,1.93 -0.08,0.12 -0.18,0.21 -0.27,0.32 5.91,0.56 8.21,6.35 6.93,11.01 0.21,0.16 0.42,0.31 0.61,0.51 0.36,0.33 0.63,0.72 0.85,1.14 0.25,0.35 0.46,0.72 0.6,1.14 0.36,0.68 0.52,1.41 0.49,2.19 v 1.99 c 0,0.44 -0.07,0.86 -0.17,1.27 0.09,0.41 0.17,0.83 0.17,1.27 -0.07,0.5 -0.14,1.01 -0.2,1.51 -0.18,0.74 -0.51,1.38 -1.02,1.93 -0.2,0.3 -0.43,0.57 -0.69,0.81 0.51,0.16 1.01,0.34 1.49,0.59 4.01,2.12 5.31,7.74 3.1,11.56 0.13,0.68 0.17,1.37 0.16,2.06 0.36,0.11 0.74,0.21 1.07,0.36 5.88,2.4 6.41,11.17 1.59,14.77 z"
           id="path158"
           style="fill:none" />
        <path
           class="st9"
           d="m 970.21,872.16 c -0.04,-0.01 -0.08,-0.03 -0.12,-0.04 h -0.19 l -32.97,-9.13 31.54,-19.17 c 0.02,-0.08 0.07,-0.15 0.1,-0.23 -0.01,-0.08 -0.02,-0.16 -0.02,-0.24 0,-0.18 -0.01,-0.37 -0.02,-0.55 -0.24,-0.02 -0.48,-0.03 -0.7,-0.08 l -40.36,0.22 32.3,-23.83 c 0.02,-0.06 0.04,-0.12 0.07,-0.18 -0.05,-0.28 -0.09,-0.57 -0.08,-0.87 v -0.23 l -0.06,0.02 -41.3,3.91 27.17,-33.58 c -0.09,-0.19 -0.2,-0.36 -0.26,-0.56 -0.13,-0.24 -0.2,-0.5 -0.28,-0.76 l -37.22,13.58 19.5,-33.25 c -0.32,-0.23 -0.6,-0.49 -0.85,-0.78 l -37.78,20.65 11.79,-41.87 0.04,-0.06 c -0.28,-0.19 -0.57,-0.35 -0.83,-0.58 -0.02,-0.02 -0.04,-0.04 -0.06,-0.05 l -0.08,0.13 -29.62,27.95 4.39,-41.16 0.01,-0.02 c -0.02,-0.08 -0.04,-0.15 -0.06,-0.23 -0.01,-0.01 -0.03,-0.02 -0.05,-0.03 -0.13,-0.04 -0.26,-0.08 -0.38,-0.14 -0.16,-0.05 -0.3,-0.15 -0.46,-0.22 l -0.09,0.24 -22.31,29.54 -3.46,-35.63 0.01,-0.07 c -0.06,-0.12 -0.12,-0.25 -0.18,-0.37 -0.19,-0.03 -0.38,-0.06 -0.57,-0.1 -0.1,0.09 -0.19,0.17 -0.29,0.25 l -0.02,0.09 -16.95,35.69 -11.05,-39.86 v -0.12 c -0.23,0 -0.45,-0.04 -0.67,-0.07 -0.15,0.11 -0.29,0.24 -0.45,0.34 l -10.36,37.38 -19.64,-33.56 -0.06,-0.22 c -0.01,-0.01 -0.01,-0.02 -0.02,-0.02 -0.02,0.01 -0.04,0.02 -0.07,0.03 -0.27,0.04 -0.54,0.07 -0.81,0.11 -0.04,0.1 -0.09,0.2 -0.13,0.3 l 0.02,0.06 -0.37,35.04 -21.74,-29.48 -0.08,-0.2 c -0.33,0.16 -0.67,0.33 -1.02,0.42 l 0.07,0.2 3.8,40.03 -31.8,-26.59 -0.18,-0.26 c -0.29,0.23 -0.6,0.43 -0.93,0.6 l 0.19,0.28 13.55,39.09 -35.4,-20.75 -0.17,-0.18 c -0.23,0.28 -0.5,0.54 -0.79,0.77 l 0.17,0.17 19.79,36.23 -39.06,-11.4 -0.02,-0.01 c 0,0 0,0 0,0 -0.22,0.29 -0.45,0.58 -0.67,0.86 0,0.01 0,0.02 0,0.03 l 0.09,0.05 28.92,31.31 -43.76,-4.65 c -0.1,0.41 -0.24,0.81 -0.43,1.19 l 29.08,21.94 -35.97,4.17 h -0.01 c -0.02,0.37 -0.07,0.73 -0.14,1.08 l 36.22,16.41 -39.88,11.06 h -0.07 c 0.01,0.32 -0.02,0.64 -0.06,0.96 0.02,0.04 0.03,0.08 0.05,0.12 h 0.08 l 38.61,10.69 -35.74,18.06 -0.12,0.02 c 0.01,0.32 -0.02,0.64 -0.06,0.95 0.04,0.05 0.09,0.1 0.13,0.15 l 0.26,-0.05 35.01,2.55 -27.96,20.61 c -0.03,0.12 -0.05,0.24 -0.09,0.35 0.1,0.23 0.18,0.46 0.25,0.7 0.17,0.03 0.32,0.09 0.48,0.14 l 44.59,-4.23 -29.1,34.3 c 0.14,0.21 0.26,0.42 0.36,0.64 0.12,0.13 0.23,0.28 0.34,0.42 l 33.92,-11.49 -18.15,30.95 c 0.11,0.1 0.24,0.17 0.34,0.29 0.2,0.18 0.35,0.39 0.5,0.59 l 37.32,-20.41 -13.73,44.8 c 0.32,0.23 0.61,0.5 0.86,0.8 l 0.03,-0.05 31.78,-28.6 -4.1,38.41 c 0.25,0.11 0.48,0.24 0.71,0.38 0.11,0.03 0.23,0.04 0.34,0.07 l 21.36,-28.29 3.74,37.49 c 0.11,0.04 0.22,0.07 0.32,0.12 0.26,0.02 0.53,0.03 0.77,0.08 l 17.85,-37.83 10.74,38.78 c 0.25,-0.03 0.49,-0.08 0.76,-0.08 0.14,0 0.26,0.03 0.39,0.04 l 9.96,-35.96 19.75,34.55 c 0.37,-0.13 0.77,-0.22 1.2,-0.27 l 0.79,-37.14 21.4,29.06 c 0.03,-0.01 0.05,-0.03 0.08,-0.04 0.1,-0.01 0.2,-0.03 0.29,-0.04 0.22,-0.18 0.44,-0.36 0.7,-0.5 l -3.74,-39.54 36.09,26.93 0.14,0.18 c 0.21,-0.31 0.46,-0.6 0.74,-0.87 l -15.7,-38.29 33.07,19.38 c 0.32,-0.22 0.66,-0.42 1.01,-0.58 l -0.03,-0.04 -18.68,-34.19 40.31,11.17 0.08,0.05 0.36,-0.86 c 0.03,-0.06 0.08,-0.1 0.12,-0.15 l -31.48,-33.13 43.92,4.68 c 0.21,0.01 0.42,0 0.63,0.03 0.09,-0.27 0.19,-0.52 0.3,-0.78 -0.05,-0.06 -0.09,-0.13 -0.14,-0.2 l -0.12,-0.05 -31.35,-23.67 38.47,-5.78 0.23,0.03 c 0.18,-0.04 0.39,-0.03 0.58,-0.06 0.12,-0.03 0.24,-0.03 0.36,-0.05 0.01,-0.04 0.01,-0.08 0.02,-0.12 0.02,-0.09 0.04,-0.17 0.08,-0.26 0.01,-0.03 0.05,-0.12 0.07,-0.18 -0.49,-0.12 -0.92,-0.3 -1.32,-0.53 l -33.8,-13.95 37.13,-10.29 h 0.36 c 0.49,-0.14 0.98,-0.22 1.49,-0.28 0,-0.19 0.01,-0.37 0.02,-0.56 -0.59,-0.01 -1.12,-0.06 -1.62,-0.17 z m -182.92,-143.37 13.61,51.19 -0.06,0.2 -13.89,-18.85 z m -22.71,5.84 28.32,74.15 -0.37,1.36 -22.03,-12.9 z m -28.06,13.58 32.74,47.42 0.08,0.94 -20.15,-11.79 z m -22.11,18.65 70.1,72.23 -0.06,0.17 -26.48,7.34 z m -19.22,24.95 47.76,29.57 1.13,2.07 -21.8,-2.32 z m -15.14,26.98 73.45,29.03 -25.6,7.09 z m -6.6,26.51 50.29,7.88 2.81,2.13 -19.28,5.33 z m -0.6,56.97 48.78,-9.75 -16.44,12.13 z m 6.98,23.73 74.15,-28.32 1.36,0.37 -12.9,22.03 z m 15.96,30.36 42.21,-28.69 -10.52,17.94 z m 16.27,19.84 45.41,-44.08 26.82,-26.02 0.17,0.06 7.34,26.48 z m 23.95,24.41 32.29,-50.66 -2.55,23.87 z m 28.01,9.92 29.03,-73.45 7.09,25.6 z m 25.4,9.18 9.16,-53.15 1.93,-2.55 5.61,20.3 z M 784.74,905.08 669.88,873.25 h 146.69 z m 32.6,-33.7 -31.83,-31.83 31.83,-114.86 z m 147.03,-27.5 -47.65,13.49 -6.29,-1.76 15.65,-11.54 z m -8.39,-24.49 -30.33,11.57 -43.85,16.75 -1.33,-0.37 12.9,-22.03 z m -13.83,-30.22 -47.48,33.9 12.36,-21.09 z m -18.43,-19.98 -12.19,11.85 -60.04,58.25 -0.17,-0.06 -7.34,-26.48 z m -26.28,-21.04 -30.22,49.89 2.52,-23.81 z m -25.62,-13.32 -29.06,73.47 -7.09,-25.63 z m -26.08,-6.06 -8.84,50.46 -1.62,2.13 -5.36,-19.33 z m -27.3,291.94 v -146.7 l 31.83,31.83 z m 29.91,-1.48 -13.58,-53.38 0.17,-0.62 14.14,19.19 z m 22.87,-8.47 -28.32,-74.15 0.37,-1.36 22.03,12.9 z m 32.15,-13.02 -36.77,-47.4 -0.14,-1.53 22.17,12.98 z m 18.03,-19.21 -45.81,-47.2 -24.29,-25.03 0.06,-0.17 26.48,-7.34 z m 21.54,-23.11 -49.01,-29.42 -2.24,-4.08 21.6,2.3 z m 12.81,-28.85 -32.71,-12.93 -40.73,-16.1 25.6,-7.09 z m 7,-29.51 -52.81,-6.43 -0.71,-0.54 21.94,-6.07 z M 819.24,872.17 v -0.03 l 31.8,-31.8 114.89,31.83 H 819.24 Z"
           id="path160"
           style="fill:#ffcd05" />
        <line
           id="line962"
           class="st8"
           x1="721.66998"
           y1="892.48999"
           x2="672.84998"
           y2="902.27002"
           style="fill:none" />
        <path
           id="path964"
           class="st9"
           d="m 903.4,717.99 -1.02,-0.54 c -1.02,-0.54 -1.62,-1.22 -1.81,-2.07 -0.14,-0.6 0.2,-1.76 1.11,-3.43 l 4.08,-7.82 v 0 c 0.77,0.62 1.5,1.19 2.21,1.67 0.71,0.48 1.39,0.91 2.01,1.22 2.64,1.39 5.05,1.76 7.2,1.13 2.18,-0.62 3.83,-2.01 4.96,-4.2 0.85,-1.62 1.11,-3.26 0.77,-4.9 -0.34,-1.67 -1.08,-3.12 -2.21,-4.31 -1.13,-1.22 -2.89,-2.47 -5.3,-3.71 l -9.84,-5.13 -0.4,0.74 1.02,0.54 c 1.02,0.54 1.64,1.22 1.84,2.07 0.14,0.6 -0.23,1.73 -1.11,3.43 L 897.84,710 c -0.79,1.53 -1.45,2.44 -1.93,2.69 -0.88,0.48 -1.87,0.43 -3,-0.17 l -1.02,-0.54 -0.4,0.74 11.51,5.98 z m 8.76,-26.13 c 1.19,0.31 2.13,0.62 2.78,0.96 1.11,0.57 1.96,1.33 2.58,2.3 0.62,0.94 0.91,2.04 0.85,3.29 -0.03,1.25 -0.37,2.44 -0.96,3.6 -0.88,1.7 -2.1,2.81 -3.66,3.34 -1.53,0.54 -3,0.45 -4.37,-0.26 -0.4,-0.2 -0.82,-0.48 -1.33,-0.82 -0.51,-0.34 -1.08,-0.77 -1.7,-1.28 z"
           style="fill:#ffcd05" />
        <path
           id="path966"
           class="st9"
           d="m 1017.69,836.88 c 1.36,-0.09 2.49,0.09 3.37,0.54 0.88,0.43 1.5,1.02 1.87,1.76 0.28,0.57 0.54,1.53 0.71,2.95 l 0.48,3.6 -22.93,3.12 c -1.67,0.23 -2.78,0.23 -3.29,-0.06 -0.85,-0.43 -1.33,-1.28 -1.53,-2.55 l -0.14,-1.05 -0.82,0.11 1.73,12.7 0.82,-0.11 -0.14,-1.05 c -0.17,-1.16 0.03,-2.07 0.57,-2.72 0.4,-0.45 1.53,-0.82 3.37,-1.08 l 22.93,-3.12 0.57,4.22 c 0.17,1.25 0.09,2.27 -0.23,3.06 -0.28,0.82 -0.85,1.53 -1.64,2.1 -0.48,0.34 -1.36,0.68 -2.58,1.02 l 0.11,0.85 7,-1.3 -3.32,-24.46 -7.09,0.6 z"
           style="fill:#ffcd05" />
        <path
           id="path968"
           class="st9"
           d="m 861.42,703.34 c 4,1.02 7.77,0.43 11.34,-1.79 3.57,-2.21 5.92,-5.56 7.06,-10.01 1.11,-4.34 0.65,-8.28 -1.42,-11.88 -2.04,-3.6 -4.96,-5.9 -8.76,-6.86 v 0 c -3.83,-0.99 -7.46,-0.54 -10.89,1.3 -3.94,2.13 -6.49,5.53 -7.68,10.18 -1.16,4.56 -0.77,8.62 1.25,12.19 2.01,3.52 5.04,5.85 9.1,6.87 z m -5.36,-17.92 c 1.19,-4.68 3.09,-7.97 5.7,-9.86 2.1,-1.53 4.45,-1.98 7.06,-1.3 v 0 c 2.81,0.71 4.73,2.27 5.81,4.62 1.33,2.98 1.36,6.97 0.09,11.99 -1.19,4.62 -2.98,7.8 -5.33,9.47 -2.35,1.7 -4.88,2.18 -7.65,1.47 -2.58,-0.65 -4.39,-2.18 -5.47,-4.54 -1.37,-3.12 -1.46,-7.06 -0.21,-11.85 z"
           style="fill:#ffcd05" />
        <path
           id="path970"
           class="st9"
           d="m 1027.67,883.71 c -0.14,1.13 -0.51,1.93 -1.16,2.35 -0.65,0.45 -1.87,0.57 -3.74,0.34 l -11.76,-1.36 c -3.63,-0.43 -6.12,-0.48 -7.48,-0.14 -2.01,0.48 -3.68,1.5 -5.02,3.09 -1.33,1.56 -2.21,4 -2.58,7.26 -0.37,3 -0.06,5.47 0.94,7.34 0.99,1.9 2.27,3.23 3.86,4.03 1.59,0.8 3.91,1.39 6.92,1.73 l 12.19,1.42 c 1.67,0.2 2.72,0.48 3.15,0.85 0.91,0.74 1.3,1.73 1.16,2.89 l -0.14,1.13 0.82,0.09 1.25,-10.63 -0.82,-0.09 -0.14,1.13 c -0.14,1.13 -0.57,1.96 -1.28,2.47 -0.51,0.37 -1.73,0.43 -3.6,0.2 l -12.19,-1.42 c -3.2,-0.37 -5.44,-0.94 -6.72,-1.67 -1.28,-0.71 -2.24,-1.9 -2.92,-3.54 -0.68,-1.64 -0.91,-3.46 -0.65,-5.41 0.17,-1.53 0.6,-2.81 1.28,-3.8 0.68,-0.99 1.47,-1.7 2.38,-2.18 0.91,-0.45 2.13,-0.71 3.66,-0.77 1.53,-0.03 2.89,0.03 4.05,0.17 l 13.12,1.53 c 1.67,0.2 2.78,0.51 3.26,0.94 0.71,0.62 1.02,1.56 0.85,2.81 l -0.14,1.16 0.82,0.09 1.53,-12.98 -0.82,-0.09 z"
           style="fill:#ffcd05" />
        <path
           id="path972"
           class="st9"
           d="m 1017.24,937.85 c -0.45,0.43 -0.94,0.71 -1.5,0.88 -0.37,0.11 -1.28,0.2 -2.75,0.23 l -28.46,0.85 -0.31,0.77 20.01,19.36 c 1.16,1.13 1.96,2.18 2.32,3.2 0.26,0.68 0.26,1.56 0.06,2.64 l 0.77,0.31 3.46,-8.67 -0.77,-0.31 c -0.09,0.14 -0.17,0.26 -0.2,0.34 -0.54,0.88 -1.08,1.47 -1.62,1.73 -0.51,0.26 -0.99,0.31 -1.39,0.14 -0.62,-0.26 -1.62,-1.02 -2.95,-2.3 l -13.63,-13.12 19.36,-0.57 c 1.73,-0.06 2.92,0.06 3.63,0.34 0.51,0.2 0.82,0.57 0.99,1.08 0.17,0.51 0.06,1.45 -0.34,2.81 l 0.77,0.31 4.59,-11.48 -0.77,-0.31 c -0.4,0.75 -0.82,1.37 -1.27,1.77 z"
           style="fill:#ffcd05" />
        <path
           id="path974"
           class="st9"
           d="m 990.53,816.38 c -1.3,-0.65 -2.27,-1.84 -2.95,-3.6 -0.57,-1.5 -0.77,-3 -0.57,-4.54 0.2,-1.5 0.68,-2.75 1.45,-3.74 0.79,-0.99 2.13,-2.07 4.03,-3.2 l -0.28,-0.77 -9.72,3.69 0.28,0.77 c 0.68,-0.14 1.19,-0.17 1.47,-0.06 0.28,0.14 0.51,0.37 0.62,0.71 0.14,0.37 0.23,1.3 0.31,2.81 0.09,1.53 0.17,2.52 0.26,2.98 0.14,0.77 0.37,1.56 0.68,2.38 0.99,2.61 2.58,4.45 4.73,5.53 2.18,1.08 4.37,1.22 6.52,0.4 1.13,-0.43 2.1,-1.11 2.95,-2.01 0.82,-0.91 1.45,-1.98 1.81,-3.23 0.4,-1.25 0.82,-3.46 1.22,-6.63 0.51,-3.91 1.13,-6.49 1.84,-7.74 0.48,-0.88 1.16,-1.47 2.01,-1.79 1.13,-0.43 2.32,-0.34 3.54,0.28 1.25,0.6 2.15,1.64 2.69,3.09 0.48,1.28 0.62,2.64 0.43,4.08 -0.2,1.45 -0.74,2.69 -1.62,3.77 -0.88,1.08 -2.18,2.1 -3.97,3.06 l 0.28,0.77 9.81,-3.71 -0.28,-0.77 c -0.71,0.11 -1.22,0.09 -1.53,-0.06 -0.28,-0.14 -0.51,-0.4 -0.65,-0.77 -0.11,-0.31 -0.14,-0.94 -0.11,-1.84 0.11,-1.96 -0.14,-3.69 -0.71,-5.19 -0.91,-2.41 -2.41,-4.11 -4.48,-5.1 -2.04,-0.99 -4.11,-1.11 -6.12,-0.34 -1.16,0.45 -2.15,1.11 -2.92,2.01 -0.77,0.91 -1.36,2.01 -1.79,3.32 -0.43,1.33 -0.85,3.46 -1.3,6.41 -0.43,2.92 -0.77,4.76 -0.96,5.44 -0.31,1.05 -0.74,1.87 -1.3,2.52 -0.57,0.65 -1.19,1.13 -1.9,1.39 -1.16,0.45 -2.46,0.36 -3.77,-0.32 z"
           style="fill:#ffcd05" />
        <path
           id="path976"
           class="st9"
           d="m 854.58,1072.95 c -0.06,1.84 -0.2,3.12 -0.48,3.83 -0.28,0.71 -0.77,1.3 -1.42,1.76 -0.68,0.45 -1.81,0.82 -3.4,1.05 l -9.58,1.42 15.17,-30.19 -0.11,-0.82 -24.41,3.63 -0.23,8.14 0.74,0.03 c 0.4,-2.64 1.05,-4.42 1.96,-5.41 0.88,-0.96 2.27,-1.59 4.14,-1.87 l 12.27,-1.84 -15.53,31.04 22.17,-3.29 -0.48,-7.57 z"
           style="fill:#ffcd05" />
        <path
           id="path978"
           class="st9"
           d="m 960.17,764.31 -0.65,-0.94 -0.68,0.48 7.34,10.69 0.68,-0.48 -0.68,-0.96 c -0.65,-0.94 -0.85,-1.81 -0.62,-2.66 0.14,-0.6 0.99,-1.45 2.58,-2.52 l 7.26,-4.99 c 0.11,0.2 0.26,0.4 0.37,0.6 0.11,0.17 0.26,0.37 0.34,0.51 0.28,0.4 0.62,0.88 1.08,1.5 l -5.88,16.46 4.59,6.66 0.68,-0.48 c -0.79,-1.47 -1.19,-2.81 -1.25,-4.03 -0.03,-1.22 0.37,-2.98 1.19,-5.27 l 3.63,-10.06 c 1.9,1.79 3.77,2.78 5.58,2.98 1.81,0.23 3.49,-0.17 5.05,-1.25 1.45,-0.99 2.35,-2.27 2.78,-3.86 0.45,-1.59 0.43,-3.15 -0.06,-4.68 -0.45,-1.53 -1.62,-3.6 -3.43,-6.24 l -6.24,-9.07 -0.68,0.48 0.65,0.94 c 0.65,0.94 0.88,1.84 0.65,2.69 -0.14,0.6 -0.99,1.45 -2.58,2.52 l -16.13,11.08 c -1.42,0.99 -2.41,1.47 -2.98,1.47 -1,0.02 -1.88,-0.52 -2.59,-1.57 z m 26.76,-9.32 c 1.08,1.05 1.84,1.93 2.32,2.64 1.11,1.62 1.5,3.23 1.19,4.88 -0.28,1.64 -1.22,3 -2.78,4.08 -1.59,1.11 -3.32,1.39 -5.19,0.88 -1.87,-0.48 -3.6,-1.93 -5.24,-4.31 -0.09,-0.11 -0.17,-0.26 -0.28,-0.43 -0.11,-0.17 -0.23,-0.4 -0.4,-0.62 z"
           style="fill:#ffcd05" />
        <path
           id="path980"
           class="st9"
           d="m 907.56,1062.43 c -1.22,-0.09 -2.04,-0.23 -2.52,-0.43 -0.48,-0.2 -1.45,-0.82 -2.89,-1.84 l -12.44,-8.67 -2.66,-6.63 c -0.62,-1.56 -0.88,-2.64 -0.77,-3.2 0.2,-0.91 0.91,-1.62 2.1,-2.1 l 0.99,-0.4 -0.31,-0.77 -11.93,4.79 0.31,0.77 0.91,-0.37 c 1.13,-0.45 2.07,-0.51 2.83,-0.14 0.57,0.28 1.19,1.28 1.87,3 l 2.83,7.03 -2.49,13.38 c -0.28,1.67 -0.6,2.92 -0.94,3.74 -0.34,0.82 -0.77,1.53 -1.33,2.13 -0.56,0.6 -1.02,0.96 -1.39,1.11 l -0.54,0.23 0.31,0.77 9.81,-3.94 -0.31,-0.77 c -0.74,0.31 -1.33,0.43 -1.79,0.4 -0.45,-0.03 -0.82,-0.14 -1.13,-0.37 -0.34,-0.23 -0.57,-0.51 -0.74,-0.91 -0.26,-0.62 -0.23,-1.76 0.09,-3.4 l 2.04,-10.86 9.5,6.69 c 1.36,0.96 2.15,1.7 2.35,2.18 0.26,0.6 0.17,1.16 -0.26,1.7 -0.43,0.54 -0.96,0.91 -1.62,1.19 l -0.62,0.26 0.31,0.77 12.02,-4.82 -0.31,-0.77 c -0.54,0.19 -0.96,0.28 -1.28,0.25 z"
           style="fill:#ffcd05" />
        <path
           id="path982"
           class="st9"
           d="m 933.16,739.28 c 0.17,2.13 0.6,4.37 1.3,6.75 0.71,2.38 1.7,4.62 2.98,6.72 1.28,2.1 2.66,3.86 4.17,5.24 l 0.45,-0.54 c -1.59,-1.62 -2.64,-3.46 -3.17,-5.56 -0.51,-2.07 -0.48,-4.62 0.09,-7.57 v 0 c 3.15,1.42 6.43,1.73 9.81,0.94 3.4,-0.77 6.32,-2.55 8.73,-5.36 3,-3.46 4.37,-7.26 4.14,-11.42 -0.23,-4.17 -1.81,-7.54 -4.82,-10.12 -3.15,-2.72 -6.83,-3.91 -11,-3.57 -4.17,0.34 -7.74,2.24 -10.71,5.64 -1.87,2.18 -3.15,4.39 -3.77,6.63 -0.6,2.24 -0.71,4.51 -0.28,6.8 0.35,1.57 1.03,3.38 2.08,5.42 z m 5.87,-15.48 c 3.29,-3.77 6.49,-5.9 9.67,-6.38 2.52,-0.4 4.79,0.31 6.86,2.07 v 0 c 1.33,1.13 2.21,2.52 2.69,4.11 0.48,1.59 0.43,3.4 -0.17,5.39 -0.79,2.58 -2.35,5.24 -4.73,7.99 -3.09,3.54 -6.18,5.58 -9.27,6.09 -2.64,0.43 -5.02,-0.28 -7.11,-2.1 -2.04,-1.76 -3,-3.94 -2.92,-6.55 0.1,-3.39 1.77,-6.93 4.98,-10.62 z"
           style="fill:#ffcd05" />
        <path
           id="path984"
           class="st9"
           d="m 994.36,986.63 c -0.54,0.26 -1.11,0.31 -1.73,0.2 -0.37,-0.06 -1.5,-0.43 -3.4,-1.05 l -25.34,-8.39 -0.48,0.62 11.03,17.32 -19.5,-6.49 -0.54,0.71 14,21.66 c 1.16,1.7 1.84,2.83 2.07,3.4 0.34,0.82 0.45,1.53 0.37,2.07 -0.09,0.57 -0.37,1.16 -0.85,1.79 l 0.65,0.51 5.58,-7.11 -0.65,-0.51 c -0.57,0.71 -1.11,1.22 -1.62,1.56 -0.28,0.2 -0.62,0.28 -0.99,0.26 -0.37,0 -0.68,-0.11 -0.96,-0.34 -0.57,-0.45 -1.36,-1.47 -2.41,-3.15 l -9.58,-14.8 16.55,5.56 c 1.9,0.62 3.15,1.19 3.74,1.64 0.48,0.37 0.74,0.82 0.79,1.36 0.06,0.51 -0.2,1.11 -0.71,1.76 l -0.48,0.62 0.65,0.51 7.29,-9.27 -0.65,-0.51 c -0.37,0.48 -0.68,0.79 -0.94,0.96 -0.31,0.23 -0.71,0.4 -1.13,0.51 -0.34,0.11 -0.65,0.14 -0.99,0.11 -0.68,-0.06 -1.42,-0.17 -2.18,-0.4 l -2.04,-0.68 -2.55,-0.85 -8.28,-12.84 17.06,5.75 c 1.87,0.65 3.03,1.11 3.43,1.45 0.4,0.31 0.62,0.74 0.62,1.28 0.03,0.54 -0.2,1.13 -0.68,1.76 l -0.34,0.43 0.65,0.51 6.92,-8.82 -0.65,-0.51 c -0.65,0.73 -1.19,1.19 -1.73,1.41 z"
           style="fill:#ffcd05" />
        <path
           id="path986"
           class="st9"
           d="m 948.75,1035.22 c -1.33,0.06 -3.37,-0.4 -6.07,-1.36 l -9.95,-3.6 0.54,-11.48 c 0.09,-1.73 0.26,-3.09 0.57,-4.11 0.31,-1.02 0.71,-1.96 1.22,-2.81 0.31,-0.51 0.74,-1.02 1.33,-1.53 l -0.48,-0.68 -8.73,6.26 0.48,0.68 c 0.94,-0.62 1.67,-0.94 2.18,-0.91 0.51,0.03 0.91,0.23 1.19,0.6 0.17,0.26 0.31,0.54 0.37,0.85 0.06,0.31 0.09,1.02 0.03,2.13 l -0.4,10.29 -8.7,-3.32 c -1.19,-0.45 -1.9,-0.74 -2.15,-0.88 -0.31,-0.2 -0.57,-0.43 -0.77,-0.71 -0.17,-0.23 -0.26,-0.51 -0.26,-0.88 0,-0.34 0.09,-0.65 0.26,-0.94 0.26,-0.37 0.71,-0.82 1.42,-1.33 l -0.48,-0.68 -10.57,7.6 0.48,0.68 c 1.13,-0.71 2.27,-1.05 3.37,-0.99 1.11,0.09 3.2,0.68 6.21,1.79 l 10.94,4.05 -0.4,9.75 c -0.09,1.98 -0.23,3.4 -0.43,4.25 -0.2,0.85 -0.54,1.67 -0.99,2.41 -0.31,0.48 -0.79,1.02 -1.45,1.53 l 0.48,0.68 8.73,-6.26 -0.48,-0.68 c -0.88,0.62 -1.5,0.96 -1.84,1.05 -0.34,0.11 -0.71,0.08 -1.08,-0.03 -0.28,-0.08 -0.51,-0.26 -0.71,-0.51 -0.17,-0.26 -0.31,-0.54 -0.34,-0.88 -0.06,-0.31 -0.09,-0.99 -0.03,-2.01 l 0.4,-8.67 7.82,2.92 c 1.19,0.45 1.96,0.88 2.27,1.33 0.26,0.34 0.28,0.77 0.14,1.3 -0.17,0.54 -0.71,1.16 -1.64,1.9 l 0.48,0.68 11.37,-8.16 -0.48,-0.68 c -1.21,0.85 -2.49,1.3 -3.85,1.36 z"
           style="fill:#ffcd05" />
        <path
           id="path988"
           class="st9"
           d="m 644.54,759.52 c 0.4,-0.57 0.94,-1.02 1.59,-1.33 0.48,-0.23 0.91,-0.31 1.3,-0.2 0.51,0.11 1.36,0.62 2.61,1.5 l 16.58,11.91 c 0.99,0.71 1.59,1.36 1.79,1.93 0.2,0.57 0.2,0.99 -0.06,1.33 -0.31,0.43 -0.88,0.57 -1.73,0.37 -1.42,-0.31 -2.35,-0.4 -2.83,-0.26 -0.45,0.11 -0.82,0.37 -1.11,0.77 -0.37,0.54 -0.51,1.13 -0.43,1.79 0.09,0.51 0.43,0.99 1.02,1.42 0.71,0.51 1.59,0.65 2.61,0.4 0.99,-0.26 1.9,-0.96 2.69,-2.1 0.99,-1.39 1.39,-2.89 1.25,-4.48 -0.14,-1.59 -0.65,-3 -1.5,-4.22 -0.85,-1.22 -2.18,-2.49 -4,-3.8 l -11.88,-8.5 c -1.45,-1.05 -2.27,-1.84 -2.47,-2.41 -0.26,-0.88 -0.06,-1.81 0.65,-2.83 l 0.62,-0.88 -0.65,-0.48 -7.37,10.54 0.65,0.48 z"
           style="fill:#ffcd05" />
        <path
           id="path990"
           class="st9"
           d="m 801.58,668.3 c 0.88,0.28 1.53,0.57 1.96,0.91 0.45,0.31 1.11,0.99 1.98,2.01 l 0.11,20.95 c 0,1.7 -0.14,2.78 -0.45,3.26 -0.51,0.77 -1.42,1.16 -2.69,1.16 h -1.02 v 0.82 l 10.35,-0.06 v -0.82 h -1.05 c -1.16,0 -2.01,-0.31 -2.58,-0.91 -0.4,-0.45 -0.6,-1.62 -0.62,-3.46 l -0.11,-18.54 19.76,24.15 h 0.79 l -0.14,-25.4 c 0,-1.7 0.14,-2.78 0.45,-3.26 0.51,-0.77 1.42,-1.16 2.66,-1.16 h 1.05 v -0.82 l -10.35,0.06 v 0.82 h 1.02 c 1.16,0 2.04,0.31 2.58,0.91 0.43,0.45 0.62,1.62 0.62,3.46 l 0.09,17.38 -18.31,-22.48 -8.08,0.06 v 0.82 c 0.93,-0.06 1.55,0 1.98,0.14 z"
           style="fill:#ffcd05" />
        <path
           id="path992"
           class="st9"
           d="m 664.15,734.12 c 0.51,-0.48 1.13,-0.82 1.84,-0.99 0.51,-0.11 0.94,-0.09 1.28,0.06 0.48,0.23 1.22,0.91 2.24,2.04 l 13.04,14.31 c 1.22,1.33 1.84,2.3 1.9,2.86 0.09,0.91 -0.34,1.79 -1.25,2.64 l -0.77,0.74 0.54,0.6 9.33,-8.7 -0.54,-0.6 -0.74,0.68 c -0.51,0.48 -1.13,0.82 -1.81,0.99 -0.51,0.11 -0.96,0.11 -1.3,-0.06 -0.45,-0.23 -1.22,-0.91 -2.24,-2.01 l -6.49,-7.14 14.43,0.51 c 1.08,0.03 1.76,0.11 2.07,0.23 0.28,0.11 0.57,0.28 0.79,0.54 0.23,0.26 0.31,0.62 0.23,1.11 -0.09,0.45 -0.43,0.99 -1.05,1.56 l 0.54,0.6 10.4,-9.72 -0.54,-0.6 c -0.99,0.82 -2.18,1.42 -3.54,1.81 -1.39,0.4 -3.34,0.51 -5.9,0.43 l -15.48,-0.6 0.28,-6.49 c 0.11,-3.83 0.2,-5.98 0.23,-6.41 0.11,-1.53 0.31,-2.72 0.57,-3.57 0.26,-0.88 0.51,-1.56 0.79,-2.04 0.28,-0.48 0.65,-0.94 1.11,-1.39 l -0.54,-0.6 -8.05,7.51 0.54,0.6 0.51,-0.45 c 0.54,-0.51 1.02,-0.77 1.42,-0.77 0.4,-0.03 0.71,0.09 0.94,0.34 0.28,0.34 0.51,0.85 0.6,1.56 0.23,1.62 0.11,5.39 -0.4,11.34 -0.2,2.35 -0.28,3.74 -0.31,4.14 l -6.18,-6.77 c -0.99,-1.08 -1.59,-1.87 -1.76,-2.32 -0.2,-0.48 -0.2,-0.94 -0.03,-1.45 0.26,-0.68 0.62,-1.28 1.13,-1.76 l 0.74,-0.68 -0.54,-0.6 -9.33,8.7 0.54,0.6 z"
           style="fill:#ffcd05" />
        <path
           id="path994"
           class="st9"
           d="m 611.85,839.43 c 0.17,-0.68 0.51,-1.3 0.99,-1.84 0.37,-0.37 0.74,-0.6 1.13,-0.65 0.51,-0.06 1.5,0.09 2.98,0.45 l 18.65,4.71 c 1.73,0.43 2.78,0.88 3.15,1.33 0.57,0.71 0.68,1.67 0.4,2.89 l -0.26,1.05 0.79,0.2 3.09,-12.53 -0.79,-0.2 -0.26,1.05 c -0.17,0.68 -0.51,1.3 -0.99,1.84 -0.37,0.4 -0.74,0.62 -1.13,0.68 -0.51,0.06 -1.5,-0.09 -2.98,-0.45 l -8.79,-2.21 3.34,-13.58 8.79,2.21 c 1.73,0.43 2.78,0.88 3.15,1.36 0.57,0.71 0.71,1.67 0.4,2.86 l -0.26,1.05 0.79,0.2 3.06,-12.5 -0.79,-0.2 -0.26,1.05 c -0.17,0.68 -0.51,1.3 -0.99,1.84 -0.37,0.37 -0.74,0.6 -1.13,0.65 -0.51,0.06 -1.5,-0.09 -2.98,-0.45 l -18.65,-4.71 c -1.42,-0.37 -2.32,-0.68 -2.75,-0.94 -0.43,-0.28 -0.71,-0.68 -0.82,-1.22 -0.17,-0.71 -0.17,-1.39 0,-2.1 l 0.26,-1.05 -0.79,-0.2 -3.06,12.5 0.79,0.2 0.26,-1.05 c 0.17,-0.68 0.51,-1.3 0.99,-1.84 0.37,-0.4 0.74,-0.62 1.13,-0.68 0.51,-0.06 1.5,0.09 2.98,0.45 l 8.28,2.07 -3.34,13.58 -8.28,-2.07 c -1.42,-0.37 -2.32,-0.68 -2.75,-0.96 -0.43,-0.28 -0.71,-0.68 -0.82,-1.19 -0.17,-0.71 -0.17,-1.39 0,-2.1 l 0.26,-1.05 -0.79,-0.2 -3.09,12.53 0.79,0.2 z"
           style="fill:#ffcd05" />
        <path
           id="path996"
           class="st9"
           d="m 627.25,790.42 c 0.31,-0.65 0.77,-1.16 1.36,-1.62 0.43,-0.28 0.85,-0.43 1.25,-0.4 0.51,0.03 1.45,0.4 2.81,1.05 l 17.29,8.5 c 1.62,0.79 2.55,1.45 2.81,1.98 0.4,0.82 0.34,1.79 -0.2,2.92 l -0.45,0.96 0.74,0.37 5.58,-11.59 -0.74,-0.37 -0.48,0.99 c -0.31,0.65 -0.77,1.16 -1.36,1.59 -0.45,0.31 -0.85,0.45 -1.25,0.43 -0.51,-0.03 -1.45,-0.4 -2.81,-1.05 l -17.29,-8.5 c -1.62,-0.79 -2.55,-1.45 -2.81,-1.98 -0.4,-0.82 -0.34,-1.79 0.2,-2.89 l 0.48,-0.99 -0.74,-0.37 -5.58,11.59 0.74,0.37 z"
           style="fill:#ffcd05" />
        <path
           id="path998"
           class="st9"
           d="m 745.39,680.58 c 0.62,0.11 1.08,0.37 1.39,0.71 0.43,0.48 0.82,1.39 1.19,2.66 l 5.16,18.99 c 0.45,1.62 0.57,2.72 0.4,3.26 -0.31,0.88 -1.08,1.5 -2.27,1.84 l -1.02,0.28 0.23,0.79 9.98,-2.78 -0.23,-0.79 -1.02,0.28 c -1.13,0.31 -2.04,0.26 -2.72,-0.2 -0.51,-0.34 -0.99,-1.39 -1.47,-3.17 l -5.27,-19.42 17.74,21.34 0.71,-0.2 4.42,-27.52 5.27,19.42 c 0.45,1.62 0.57,2.72 0.4,3.26 -0.28,0.88 -1.05,1.5 -2.27,1.84 l -1.02,0.28 0.23,0.79 12.19,-3.4 -0.23,-0.79 -0.99,0.28 c -1.13,0.31 -2.04,0.26 -2.72,-0.2 -0.51,-0.34 -1.02,-1.39 -1.5,-3.17 l -5.16,-18.99 c -0.45,-1.62 -0.57,-2.72 -0.4,-3.26 0.31,-0.88 1.08,-1.5 2.3,-1.84 l 0.99,-0.28 -0.23,-0.79 -8.14,2.27 -4.05,25.57 -16.58,-19.84 -8.14,2.27 0.23,0.79 c 1.13,-0.34 2.01,-0.43 2.6,-0.28 z"
           style="fill:#ffcd05" />
        <path
           id="path1000"
           class="st9"
           d="m 742.16,1037.12 c -1.76,-0.03 -3.32,0.4 -4.71,1.3 -1.39,0.91 -2.35,2.07 -2.92,3.46 -0.74,1.81 -0.71,3.63 0.09,5.44 0.6,1.3 1.73,2.55 3.49,3.74 -1.84,-0.14 -3.43,0.14 -4.71,0.91 -1.28,0.77 -2.21,1.84 -2.78,3.23 -0.65,1.64 -0.71,3.29 -0.14,4.99 0.57,1.7 1.76,3.23 3.57,4.56 1.22,0.88 2.92,1.79 5.13,2.72 l 11.91,4.93 0.31,-0.77 -1.05,-0.43 c -1.05,-0.43 -1.7,-1.05 -1.98,-1.87 -0.2,-0.62 0.03,-1.79 0.74,-3.51 l 7.29,-18 c 0.62,-1.56 1.19,-2.52 1.7,-2.86 0.79,-0.54 1.79,-0.57 2.92,-0.09 l 1.05,0.43 0.31,-0.77 -13.01,-5.39 c -3.04,-1.31 -5.48,-1.97 -7.21,-2.02 z m 1.82,30.16 c -1.22,-0.14 -2.49,-0.51 -3.83,-1.08 -2.52,-1.05 -4.2,-2.41 -5.05,-4.11 -0.85,-1.7 -0.94,-3.37 -0.28,-4.99 0.43,-1.05 1.08,-1.93 1.98,-2.58 0.88,-0.68 1.93,-1.02 3.09,-1.05 1.16,-0.03 2.72,0.4 4.71,1.22 0.77,0.31 1.47,0.62 2.1,0.94 0.62,0.31 1.16,0.62 1.62,0.94 z m 5.1,-12.59 c -0.4,-0.09 -0.91,-0.23 -1.5,-0.45 -0.6,-0.23 -1.33,-0.51 -2.18,-0.85 -1.93,-0.79 -3.46,-1.76 -4.54,-2.89 -1.08,-1.13 -1.7,-2.3 -1.9,-3.54 -0.17,-1.25 -0.06,-2.41 0.4,-3.49 0.68,-1.64 1.87,-2.75 3.6,-3.34 1.73,-0.57 3.83,-0.37 6.29,0.65 1.53,0.62 3,1.47 4.42,2.49 z"
           style="fill:#ffcd05" />
        <path
           id="path1002"
           class="st9"
           d="m 609.27,867.1 c 0.26,0.2 0.37,0.43 0.4,0.71 0,0.28 -0.14,0.85 -0.43,1.67 -0.57,1.64 -0.94,2.92 -1.11,3.83 -0.17,0.88 -0.23,1.87 -0.23,2.98 0.03,3 0.71,5.61 2.01,7.8 1.56,2.61 3.8,4.65 6.66,6.12 2.41,1.25 4.93,1.84 7.57,1.81 3.63,-0.06 6.77,-1.22 9.52,-3.54 3.66,-3.06 5.44,-7.51 5.36,-13.35 -0.03,-2.04 -0.26,-3.88 -0.71,-5.53 -0.45,-1.64 -1.13,-3.32 -2.07,-5.02 l -9.1,0.11 c -1.59,0.03 -2.66,-0.11 -3.2,-0.4 -0.77,-0.43 -1.16,-1.22 -1.16,-2.35 v -0.57 h -0.82 l 0.17,11.65 h 0.82 c -0.03,-1.22 0.09,-2.07 0.34,-2.55 0.23,-0.48 0.57,-0.85 1.05,-1.08 0.45,-0.26 1.42,-0.37 2.92,-0.4 l 8.62,-0.11 c 0.57,0.96 0.96,1.96 1.28,2.98 0.28,1.02 0.45,2.1 0.45,3.2 0.03,1.9 -0.48,3.74 -1.56,5.58 -1.08,1.81 -2.78,3.29 -5.1,4.42 -2.32,1.13 -4.9,1.73 -7.74,1.79 -3.49,0.06 -6.52,-0.74 -9.07,-2.38 -3.03,-1.96 -4.56,-4.85 -4.62,-8.7 -0.03,-2.81 0.79,-5.13 2.47,-6.94 1.16,-1.25 2.92,-2.3 5.24,-3.12 v -0.77 l -9.38,0.91 v 0.82 c 0.66,0.09 1.17,0.2 1.42,0.43 z"
           style="fill:#ffcd05" />
        <path
           id="path1004"
           class="st9"
           d="m 639.29,972.94 17.21,-8.93 c 1.28,-0.68 2.18,-1.02 2.69,-1.08 0.48,-0.09 0.94,0.06 1.36,0.37 0.6,0.43 1.05,0.94 1.36,1.56 l 0.48,0.94 0.74,-0.37 -10.46,-20.66 -7.82,1.13 0.4,0.79 c 2.07,0 3.71,0.23 4.93,0.62 0.94,0.31 1.67,0.77 2.24,1.33 0.57,0.57 1.22,1.62 1.98,3.15 l 2.3,4.54 c 0.37,0.74 0.57,1.28 0.54,1.62 -0.03,0.34 -0.14,0.62 -0.31,0.88 -0.2,0.23 -0.91,0.65 -2.07,1.28 l -8.73,4.54 -2.98,-5.9 c -0.57,-1.13 -0.85,-2.01 -0.88,-2.69 -0.03,-0.68 0.14,-1.25 0.48,-1.73 0.28,-0.37 0.99,-0.99 2.21,-1.84 l -0.37,-0.74 -9.21,4.79 0.37,0.74 c 1.56,-0.71 2.81,-0.88 3.74,-0.48 0.71,0.28 1.47,1.19 2.24,2.72 l 2.98,5.9 -10.46,5.41 -3.71,-7.37 c -0.68,-1.33 -1.05,-2.32 -1.11,-2.95 -0.06,-0.79 0.09,-1.5 0.45,-2.1 0.34,-0.62 1.16,-1.42 2.41,-2.41 l -0.4,-0.77 -5.64,3.32 10.46,20.66 0.74,-0.37 -0.48,-0.94 c -0.57,-1.11 -0.71,-2.04 -0.43,-2.78 0.14,-0.59 1.08,-1.3 2.75,-2.18 z"
           style="fill:#ffcd05" />
        <path
           id="path1006"
           class="st9"
           d="m 643.91,926.14 c 0.82,0.37 1.39,1.16 1.7,2.35 l 0.26,1.02 0.79,-0.2 -3.17,-12.53 -0.79,0.2 0.26,1.05 c 0.17,0.68 0.17,1.39 0,2.13 -0.14,0.54 -0.37,0.91 -0.68,1.13 -0.43,0.31 -1.36,0.65 -2.81,1.02 l -9.04,2.35 -1.36,-5.3 c -0.26,-0.96 -0.31,-1.73 -0.14,-2.3 0.11,-0.57 0.43,-1.05 0.88,-1.47 0.45,-0.43 1.25,-0.79 2.35,-1.11 l -0.2,-0.79 -9.75,2.55 0.2,0.79 c 1.62,-0.23 2.78,-0.11 3.46,0.31 0.68,0.43 1.16,1.25 1.47,2.47 l 1.36,5.3 -11.34,2.95 -1.64,-6.43 c -0.4,-1.53 -0.54,-2.66 -0.43,-3.46 0.09,-0.79 0.4,-1.53 0.91,-2.18 0.48,-0.65 1.36,-1.36 2.61,-2.07 l -0.2,-0.77 -6.26,1.93 5.53,21.71 0.79,-0.2 -0.26,-1.02 c -0.17,-0.71 -0.17,-1.42 0,-2.13 0.14,-0.51 0.37,-0.88 0.68,-1.13 0.43,-0.31 1.36,-0.65 2.81,-1.02 l 18.62,-4.85 c 1.72,-0.41 2.85,-0.53 3.39,-0.3 z"
           style="fill:#ffcd05" />
        <path
           id="path1008"
           class="st9"
           d="m 794.66,1052.2 c 1.39,0.34 2.3,0.71 2.66,1.11 0.37,0.43 0.51,0.85 0.43,1.3 -0.09,0.57 -0.48,1.39 -1.16,2.47 l -2.75,4.37 -11.37,-1.87 -1.11,-4.56 c -0.37,-1.47 -0.48,-2.55 -0.37,-3.2 0.09,-0.48 0.34,-0.85 0.82,-1.13 0.45,-0.26 1.28,-0.34 2.47,-0.2 l 0.14,-0.82 -11.59,-1.9 -0.14,0.82 c 1.19,0.28 2.07,0.77 2.66,1.45 0.57,0.71 1.11,2.13 1.62,4.25 l 6.26,26.42 0.77,0.11 14.26,-22.79 c 1.25,-2.01 2.3,-3.29 3.15,-3.88 0.43,-0.28 1.25,-0.45 2.52,-0.45 l 0.14,-0.82 -9.24,-1.53 z m -8.76,21.97 -3.06,-12.84 10.09,1.64"
           style="fill:#ffcd05" />
        <path
           id="path1010"
           class="st9"
           d="m 689.41,1000.61 0.74,0.85 0.62,-0.54 -8.67,-10.2 c -3.77,-4.42 -7.74,-6.72 -11.93,-6.83 -3.74,-0.09 -7.2,1.22 -10.35,3.97 -2.35,2.04 -3.94,4.39 -4.79,7.03 -0.88,2.64 -0.94,5.19 -0.17,7.63 0.74,2.44 2.55,5.36 5.47,8.79 l 7.91,9.3 0.62,-0.54 -0.74,-0.85 c -0.74,-0.85 -1.05,-1.73 -0.94,-2.58 0.09,-0.62 0.82,-1.56 2.24,-2.78 l 14.57,-12.7 c 1.28,-1.11 2.21,-1.7 2.78,-1.79 0.94,-0.12 1.82,0.27 2.64,1.24 z m -25,11.93 c -1.42,-1.02 -2.55,-2.01 -3.43,-3.03 -2.3,-2.69 -3.26,-5.7 -2.92,-8.96 0.34,-3.29 2.07,-6.29 5.19,-8.99 3.09,-2.69 6.26,-3.97 9.55,-3.83 3.26,0.14 6.01,1.53 8.22,4.11 0.82,0.96 1.67,2.3 2.58,4 z"
           style="fill:#ffcd05" />
        <path
           id="path1012"
           class="st9"
           d="m 703.84,701.21 c 0.99,-0.57 1.87,-0.71 2.69,-0.43 0.6,0.2 1.33,1.13 2.27,2.78 l 9.47,16.92 c 0.85,1.5 1.25,2.52 1.19,3.09 -0.06,0.99 -0.65,1.81 -1.73,2.44 l -0.96,0.57 0.4,0.71 20.04,-11.51 -1.76,-8.39 -0.71,0.23 c 0.26,2.01 0.26,3.57 0.03,4.71 -0.26,1.13 -0.68,2.07 -1.33,2.83 -0.62,0.77 -1.96,1.7 -3.94,2.83 l -1.9,1.08 c -1.67,0.96 -2.69,1.47 -3.09,1.5 -0.4,0.06 -0.74,0 -1.05,-0.2 -0.43,-0.28 -0.94,-0.96 -1.53,-2.04 l -9.21,-16.47 c -0.88,-1.56 -1.33,-2.61 -1.36,-3.15 -0.03,-0.54 0.17,-1.08 0.54,-1.67 0.4,-0.6 1.3,-1.28 2.69,-2.04 l -0.4,-0.71 -11.74,6.72 0.4,0.71 z"
           style="fill:#ffcd05" />
        <path
           id="path1014"
           class="st9"
           d="m 712.03,1017.3 c -2.24,-1.62 -4.51,-2.49 -6.83,-2.66 -2.32,-0.17 -4.88,0.43 -7.63,1.73 l 0.31,0.77 c 2.86,-0.99 5.16,-1.39 6.83,-1.19 1.67,0.2 3.32,0.85 4.88,1.98 1.81,1.3 3.12,2.92 3.91,4.79 0.79,1.87 0.96,3.88 0.51,6.04 -0.45,2.13 -1.45,4.31 -3,6.52 -1.9,2.69 -3.86,4.68 -5.87,5.95 -2.01,1.28 -3.97,1.84 -5.87,1.73 -1.87,-0.11 -3.63,-0.74 -5.24,-1.9 -1.93,-1.39 -3.17,-3.12 -3.77,-5.22 -0.6,-2.1 -0.37,-4.65 0.65,-7.68 l -0.57,-0.4 -5.33,8.73 0.62,0.45 c 0.54,-0.48 1.08,-0.77 1.62,-0.88 0.4,-0.06 0.77,0.03 1.08,0.26 0.23,0.14 0.48,0.54 0.79,1.16 1.08,2.1 2.52,3.77 4.25,5.05 2.24,1.62 4.73,2.55 7.43,2.81 2.69,0.26 5.3,-0.26 7.82,-1.53 2.52,-1.28 4.65,-3.12 6.38,-5.56 2.15,-3.03 3.17,-6.26 3.12,-9.69 -0.02,-4.59 -2.07,-8.34 -6.09,-11.26 z"
           style="fill:#ffcd05" />
      </g>
    </g>
  </g>
</svg>
