<?xml version="1.0" encoding="UTF-8" standalone="no"?>
<!-- Uploaded to: SVG Repo, www.svgrepo.com, Generator: SVG Repo Mixer Tools -->

<svg
   version="1.1"
   id="Layer_1"
   viewBox="0 0 511.672 511.672"
   xml:space="preserve"
   sodipodi:docname="treasure-chest-svgrepo-com.svg"
   inkscape:version="1.3.1 (9b9bdc1480, 2023-11-25, custom)"
   xmlns:inkscape="http://www.inkscape.org/namespaces/inkscape"
   xmlns:sodipodi="http://sodipodi.sourceforge.net/DTD/sodipodi-0.dtd"
   xmlns="http://www.w3.org/2000/svg"
   xmlns:svg="http://www.w3.org/2000/svg"><defs
   id="defs19" /><sodipodi:namedview
   id="namedview19"
   pagecolor="#ffffff"
   bordercolor="#000000"
   borderopacity="0.25"
   inkscape:showpageshadow="2"
   inkscape:pageopacity="0.0"
   inkscape:pagecheckerboard="0"
   inkscape:deskcolor="#d1d1d1"
   inkscape:zoom="1.5048703"
   inkscape:cx="255.836"
   inkscape:cy="255.836"
   inkscape:window-width="2480"
   inkscape:window-height="1371"
   inkscape:window-x="80"
   inkscape:window-y="32"
   inkscape:window-maximized="1"
   inkscape:current-layer="Layer_1" />
<path
   style="fill:#a85d5d;stroke-width:0.663309"
   d="m 401.69012,288.75298 25.04454,-37.85702 c 0,0 3.16995,-94.10891 -56.56232,-98.97693 H 257.09811 257.04641 143.97285 C 84.241238,156.78705 87.410527,250.8953 87.410527,250.8953 l 25.158633,37.49418 -25.189809,68.54699 28.276189,113.14653 282.83349,0.0411 28.2868,-113.15714 z"
   id="path1" />
<g
   style="opacity:0.2"
   id="g2"
   transform="matrix(0.66330868,0,0,0.66330868,87.379311,141.32333)">
	<path
   style="fill:#ffffff"
   d="M 0.593,165.987 C 3.186,126.403 16.771,42.878 85.32,37.273 h 170.469 0.078 170.469 c 68.551,5.606 82.15,89.162 84.728,128.73 l 0.546,-0.812 c 0,0 4.779,-141.878 -85.273,-149.217 H 255.867 255.789 85.32 C -4.731,23.313 0.047,165.19 0.047,165.19 Z"
   id="path2" />
</g>
<polygon
   style="fill:#723f3f"
   points="0,325.057 37.976,221.717 473.853,222.264 511.672,325.104 "
   id="polygon2"
   transform="matrix(0.66330868,0,0,0.66330868,87.379311,141.32333)" />
<polygon
   style="fill:#8c4c4c"
   points="37.976,221.717 0.047,165.19 511.609,165.19 473.853,222.264 "
   id="polygon3"
   transform="matrix(0.66330868,0,0,0.66330868,87.379311,141.32333)" />
<path
   d="m 264.14112,413.48884 c 0,3.9049 -3.16929,7.07418 -7.06357,7.07418 -3.9049,0 -7.07419,-3.16928 -7.07419,-7.07418 0,-3.90556 3.16929,-7.06358 7.07419,-7.06358 3.89428,0 7.06357,3.15868 7.06357,7.06358 z"
   id="path3"
   style="stroke-width:0.663309" />
<g
   id="g11"
   transform="matrix(0.66330868,0,0,0.66330868,87.379311,141.32333)">
	<path
   style="fill:#ffce54"
   d="m 170.251,295.045 c -12.258,0 -24.079,-2.701 -32.448,-7.401 -6.387,-3.591 -10.181,-8.042 -10.181,-11.914 0,-7.87 16.615,-19.315 42.629,-19.315 12.257,0 24.094,2.701 32.463,7.417 6.371,3.575 10.181,8.026 10.181,11.898 0,7.885 -16.615,19.315 -42.644,19.315 z"
   id="path4" />
	<path
   style="fill:#ffce54"
   d="m 255.524,295.045 c -12.258,0 -24.079,-2.701 -32.464,-7.401 -6.371,-3.591 -10.165,-8.042 -10.165,-11.914 0,-7.87 16.599,-19.315 42.629,-19.315 12.257,0 24.078,2.701 32.463,7.417 6.371,3.575 10.165,8.026 10.165,11.898 0,7.885 -16.597,19.315 -42.628,19.315 z"
   id="path5" />
	<path
   style="fill:#ffce54"
   d="m 340.797,295.045 c -12.258,0 -24.094,-2.701 -32.463,-7.401 -6.371,-3.591 -10.182,-8.042 -10.182,-11.914 0,-7.87 16.615,-19.315 42.645,-19.315 12.258,0 24.078,2.701 32.448,7.417 6.371,3.575 10.181,8.026 10.181,11.898 0,7.885 -16.613,19.315 -42.629,19.315 z"
   id="path6" />
	<path
   style="fill:#ffce54"
   d="m 212.895,265.065 c -12.258,0 -24.094,-2.686 -32.464,-7.401 -6.371,-3.592 -10.181,-8.026 -10.181,-11.899 0,-7.885 16.614,-19.332 42.645,-19.332 12.242,0 24.078,2.717 32.448,7.417 6.371,3.576 10.181,8.042 10.181,11.915 0,7.869 -16.615,19.3 -42.629,19.3 z"
   id="path7" />
	<path
   style="fill:#ffce54"
   d="m 298.152,265.065 c -12.242,0 -24.078,-2.686 -32.447,-7.401 -6.371,-3.592 -10.181,-8.026 -10.181,-11.899 0,-7.885 16.615,-19.332 42.628,-19.332 12.258,0 24.094,2.717 32.464,7.417 6.371,3.576 10.181,8.042 10.181,11.915 0,7.869 -16.613,19.3 -42.645,19.3 z"
   id="path8" />
	<path
   style="fill:#ffce54"
   d="m 255.524,235.099 c -12.258,0 -24.079,-2.702 -32.464,-7.417 -6.371,-3.575 -10.165,-8.026 -10.165,-11.898 0,-7.87 16.599,-19.315 42.629,-19.315 12.257,0 24.078,2.701 32.463,7.417 6.371,3.576 10.165,8.026 10.165,11.898 0,7.869 -16.597,19.315 -42.628,19.315 z"
   id="path9" />
	<path
   style="fill:#ffce54"
   d="m 91.629,325.104 h 72.516 c 4.153,-3.123 6.417,-6.511 6.417,-9.415 0,-3.873 -3.81,-8.308 -10.181,-11.899 -8.37,-4.715 -20.206,-7.401 -32.463,-7.401 -26.015,0 -42.629,11.431 -42.629,19.301 0,3.028 2.311,6.384 6.34,9.414 z"
   id="path10" />
	<path
   style="fill:#ffce54"
   d="m 176.902,325.104 h 72.516 c 4.153,-3.123 6.402,-6.511 6.402,-9.415 0,-3.873 -3.794,-8.308 -10.165,-11.899 -8.37,-4.715 -20.206,-7.401 -32.464,-7.401 -26.03,0 -42.629,11.431 -42.629,19.301 10e-4,3.028 2.312,6.384 6.34,9.414 z"
   id="path11" />
</g>
<rect
   x="224.40961"
   y="356.96893"
   style="fill:#ccd1d9;stroke-width:0.663309"
   width="63.856724"
   height="65.501732"
   id="rect11" />
<g
   id="g13"
   transform="matrix(0.66330868,0,0,0.66330868,87.379311,141.32333)">
	<path
   style="fill:#ffce54"
   d="m 262.16,325.104 h 72.516 c 4.154,-3.123 6.418,-6.511 6.418,-9.415 0,-3.873 -3.795,-8.308 -10.165,-11.899 -8.386,-4.715 -20.206,-7.401 -32.464,-7.401 -26.029,0 -42.645,11.431 -42.645,19.301 0,3.028 2.327,6.384 6.34,9.414 z"
   id="path12" />
	<path
   style="fill:#ffce54"
   d="m 347.434,325.104 h 72.516 c 4.154,-3.123 6.418,-6.511 6.418,-9.415 0,-3.873 -3.81,-8.308 -10.181,-11.899 -8.37,-4.715 -20.206,-7.401 -32.448,-7.401 -26.029,0 -42.645,11.431 -42.645,19.301 0,3.028 2.31,6.384 6.34,9.414 z"
   id="path13" />
</g>
<path
   style="fill:#f6bb42;stroke-width:0.663309"
   d="m 375.47483,356.96764 c 1.14952,-1.95742 1.79226,-4.06011 1.79226,-6.24505 0,-10.06836 -13.33118,-18.39488 -30.617,-19.70027 1.37703,-2.1133 2.13386,-4.41233 2.13386,-6.80488 0,-9.62262 -12.15977,-17.63937 -28.29674,-19.4827 0,-0.13466 0.0106,-0.26931 0.0106,-0.39335 0,-9.63256 -12.14916,-17.64931 -28.29675,-19.49265 0.0106,-0.1247 0.0206,-0.25935 0.0206,-0.394 0,-10.97909 -15.82654,-19.886 -35.35037,-19.886 -19.52449,0 -35.35037,8.90758 -35.35037,19.886 0,0.13465 0.0106,0.2693 0.0206,0.394 -16.14759,1.84334 -28.29741,9.86009 -28.29741,19.49265 0,0.12471 0.0106,0.25869 0.0106,0.39335 -16.13697,1.84333 -28.29675,9.86008 -28.29675,19.4827 0,2.4025 0.75618,4.71214 2.15443,6.84601 -17.1001,1.3883 -30.23361,9.66308 -30.23361,19.65914 0,2.18494 0.64208,4.28763 1.7916,6.24505 z m -130.89866,-3.38685 c -4.38115,1.86456 -9.98479,2.88937 -15.78476,2.88937 -5.79997,0 -11.4036,-1.02548 -15.7748,-2.88937 -2.42373,-1.03609 -3.93608,-2.09208 -4.7745,-2.85886 0.83909,-0.74556 2.35077,-1.81283 4.7745,-2.83764 4.3712,-1.86522 9.97483,-2.90065 15.7748,-2.90065 5.80064,0 11.40361,1.03609 15.78476,2.90065 2.41312,1.02481 3.92546,2.09208 4.77516,2.83764 -0.8497,0.76678 -2.36204,1.82343 -4.77516,2.85886 z m -3.49033,-26.5151 c -2.41312,-1.02548 -3.92546,-2.09208 -4.77516,-2.84825 0.197,-0.17644 0.43513,-0.36283 0.70443,-0.56912 6.18337,-0.8497 11.72465,-2.61078 16.14759,-5.03451 1.22248,-0.0829 2.46486,-0.13465 3.7079,-0.13465 1.24304,0 2.48608,0.0517 3.69728,0.13465 4.43355,2.42373 9.97484,4.18481 16.15754,5.03451 0.2693,0.20695 0.50809,0.39334 0.70443,0.56912 -0.84904,0.75617 -2.36204,1.82277 -4.77516,2.84825 -4.38049,1.86456 -9.98479,2.89998 -15.78409,2.89998 -5.80064,0 -11.40361,-1.03609 -15.78476,-2.89998 z m 60.04204,26.5151 c -4.37054,1.86456 -9.97417,2.88937 -15.77415,2.88937 -5.79997,0 -11.40293,-1.02548 -15.78475,-2.88937 -2.41378,-1.03609 -3.92546,-2.09208 -4.77516,-2.85886 0.8497,-0.74556 2.36204,-1.81283 4.77516,-2.83764 4.38115,-1.86522 9.98478,-2.90065 15.78475,-2.90065 5.79998,0 11.40361,1.03609 15.77415,2.90065 2.42373,1.02481 3.93607,2.09208 4.77516,2.83764 -0.83909,0.76678 -2.35143,1.82343 -4.77516,2.85886 z m 56.56298,-5.6965 c 2.42373,1.02481 3.93674,2.09208 4.77516,2.83764 -0.83908,0.76612 -2.35143,1.82277 -4.77516,2.85886 -4.37054,1.86456 -9.98478,2.88937 -15.77414,2.88937 -5.79997,0 -11.40294,-1.02548 -15.78476,-2.88937 -2.42373,-1.03609 -3.93607,-2.09208 -4.77516,-2.85886 0.83975,-0.74556 2.35143,-1.81283 4.77516,-2.83764 4.38116,-1.86522 9.98479,-2.90065 15.78476,-2.90065 5.78936,0 11.4036,1.03609 15.77414,2.90065 z m -44.25794,-29.4058 c 5.79997,0 11.4036,1.02614 15.7748,2.89004 2.42307,1.03609 3.93608,2.09207 4.7745,2.84825 -0.83909,0.75617 -2.35143,1.82277 -4.7745,2.84824 -4.3712,1.86456 -9.97483,2.89999 -15.7748,2.89999 -5.79997,0 -11.40294,-1.03609 -15.78476,-2.89999 -2.42373,-1.02547 -3.93607,-2.09207 -4.77449,-2.84824 0.19633,-0.17644 0.43446,-0.36283 0.70443,-0.56912 6.18336,-0.8497 11.72464,-2.61079 16.14759,-5.03452 1.22181,-0.0829 2.45424,-0.13465 3.70723,-0.13465 z m -28.2868,-19.88599 c 5.79997,0 11.4036,1.02547 15.78542,2.88937 2.42307,1.03609 3.93607,2.09208 4.77449,2.85886 -0.197,0.16583 -0.43513,0.36217 -0.70443,0.56978 -6.18336,0.84904 -11.72531,2.62007 -16.14825,5.02324 -1.22181,0.0935 -2.45424,0.14526 -3.70789,0.14526 -1.24238,0 -2.47481,-0.0517 -3.69729,-0.14526 -4.43355,-2.40317 -9.97417,-4.1742 -16.15753,-5.02324 -0.26931,-0.20695 -0.49748,-0.40395 -0.69449,-0.56978 0.19701,-0.18639 0.42518,-0.37278 0.69449,-0.58039 6.18336,-0.84904 11.72464,-2.61012 16.15753,-5.02324 1.21253,-0.0929 2.45557,-0.1446 3.69795,-0.1446 z m -44.06028,-16.98667 c 4.38115,-1.86456 9.98479,-2.88938 15.78476,-2.88938 5.79997,0 11.4036,1.02548 15.78409,2.88938 2.41378,1.02547 3.92612,2.09207 4.77516,2.84824 -0.197,0.17644 -0.43513,0.37278 -0.70443,0.5804 -6.1827,0.8497 -11.72465,2.61012 -16.15754,5.01329 -1.2112,0.10347 -2.45424,0.1446 -3.69728,0.1446 -1.24304,0 -2.48608,-0.0411 -3.7079,-0.1446 -4.42228,-2.40317 -9.96356,-4.16359 -16.14759,-5.01329 -0.2693,-0.20695 -0.50743,-0.40396 -0.70443,-0.5804 0.8497,-0.7555 2.36138,-1.82277 4.77516,-2.84824 z m -28.27619,19.87604 c 4.38116,-1.86456 9.98479,-2.88937 15.78476,-2.88937 1.24304,0 2.47547,0.0517 3.69728,0.14526 4.43356,2.41378 9.97484,4.1742 16.15754,5.02324 0.2693,0.20695 0.49748,0.394 0.69382,0.58039 -0.197,0.16583 -0.42452,0.36217 -0.69382,0.56979 -6.18336,0.84903 -11.73459,2.62007 -16.15754,5.02323 -1.22181,0.0935 -2.4549,0.14527 -3.69728,0.14527 -1.25365,0 -2.48608,-0.0517 -3.70789,-0.14527 -4.42228,-2.40316 -9.96356,-4.1742 -16.14759,-5.02323 -0.2693,-0.20696 -0.50743,-0.40396 -0.70443,-0.56979 0.83908,-0.76744 2.35142,-1.82343 4.77515,-2.85952 z m -28.27618,19.88732 c 4.37054,-1.86456 9.97417,-2.89003 15.77481,-2.89003 1.25299,0 2.48608,0.0517 3.70789,0.13465 4.42228,2.42373 9.96356,4.18481 16.14759,5.03451 0.2693,0.20695 0.50743,0.39334 0.70443,0.56912 -0.84903,0.75617 -2.35076,1.82277 -4.77516,2.84825 -4.38115,1.86456 -9.98478,2.89998 -15.78475,2.89998 -5.80064,0 -11.40361,-1.03609 -15.77481,-2.89998 -2.42373,-1.02548 -3.93607,-2.09208 -4.77516,-2.84825 0.83909,-0.75617 2.35143,-1.81282 4.77516,-2.84825 z m -28.07985,26.5151 c 4.37121,-1.86522 9.98479,-2.90065 15.77481,-2.90065 5.80064,0 11.4036,1.03609 15.78476,2.90065 2.42373,1.02481 3.93607,2.09208 4.77449,2.83764 -0.83908,0.76612 -2.35076,1.82277 -4.77449,2.85886 -4.38116,1.86456 -9.98479,2.88937 -15.78476,2.88937 -5.79997,0 -11.4036,-1.02548 -15.77481,-2.88937 -2.42373,-1.03609 -3.93607,-2.09208 -4.77449,-2.85886 0.83908,-0.7449 2.35076,-1.81283 4.77449,-2.83764 z"
   id="path14" />
<rect
   x="249.79443"
   y="395.77914"
   style="fill:#aab2bc;stroke-width:0.663309"
   width="14.149037"
   height="17.711668"
   id="rect14" />
<path
   style="fill:#434a54;stroke-width:0.663309"
   d="m 267.09351,386.73561 c 0,5.60363 -4.54698,10.14 -10.14,10.14 -5.60363,0 -10.15061,-4.53637 -10.15061,-10.14 0,-5.60297 4.54698,-10.14 10.15061,-10.14 5.59236,-6.6e-4 10.14,4.53637 10.14,10.14 z"
   id="path15" />
<path
   style="fill:#ccd1d9;stroke-width:0.663309"
   d="m 299.28454,250.8953 c 0,0 0.0106,-0.0106 0.0106,-0.0206 v -28.27615 c 0,-3.89429 -3.16863,-7.06357 -7.07353,-7.06357 H 221.5202 c -3.90489,0 -7.07418,3.16928 -7.07418,7.06357 v 28.27619 c 0,0.0106 0,0.0206 0,0.0206 z"
   id="path16" />
<g
   id="g19"
   transform="matrix(0.66330868,0,0,0.66330868,87.379311,141.32333)">
	<path
   style="fill:#aab2bc"
   d="m 212.895,165.19 v -31.995 h 85.257 v 31.995 h 21.314 c 0,-21.798 0.016,-42.66 0.016,-42.66 0,-5.871 -4.777,-10.649 -10.664,-10.649 H 202.23 c -5.887,0 -10.665,4.778 -10.665,10.649 0,0 0,20.862 0,42.66 z"
   id="path17" />
	<polygon
   style="fill:#aab2bc"
   points="92.894,495.651 114.723,495.651 76.998,325.057 55.152,325.057 "
   id="polygon17" />
	<polygon
   style="fill:#aab2bc"
   points="396.387,495.698 418.217,495.698 455.989,325.088 434.159,325.088 "
   id="polygon18" />
	<path
   style="fill:#aab2bc"
   d="m 298.152,325.088 v 95.893 h -85.257 v -95.908 h -21.33 v 106.573 c 0,5.871 4.778,10.649 10.665,10.649 h 106.588 c 5.887,0 10.664,-4.778 10.664,-10.649 V 325.088 Z"
   id="path18" />
	<path
   style="fill:#aab2bc"
   d="m 255.836,335.707 c -17.661,0 -31.979,14.318 -31.979,31.979 0,17.66 14.319,31.979 31.979,31.979 17.645,0 31.964,-14.319 31.964,-31.979 0,-17.661 -14.319,-31.979 -31.964,-31.979 z m 0,42.629 c -5.887,0 -10.665,-4.778 -10.665,-10.649 0,-5.872 4.778,-10.665 10.665,-10.665 5.871,0 10.649,4.793 10.649,10.665 0,5.871 -4.778,10.649 -10.649,10.649 z"
   id="path19" />
</g>
<polygon
   style="opacity:0.1;enable-background:new"
   points="7.823,303.727 503.803,303.727 511.672,325.057 0,325.057 "
   id="polygon19"
   transform="matrix(0.66330868,0,0,0.66330868,87.379311,141.32333)" />
</svg>
