<?xml version="1.0" encoding="UTF-8" standalone="no"?>
<svg
   width="undefined"
   height="undefined"
   viewBox="0 0 32 32"
   version="1.1"
   id="svg10"
   sodipodi:docname="unlocked.svg"
   inkscape:version="1.2.2 (b0a8486541, 2022-12-01)"
   xmlns:inkscape="http://www.inkscape.org/namespaces/inkscape"
   xmlns:sodipodi="http://sodipodi.sourceforge.net/DTD/sodipodi-0.dtd"
   xmlns="http://www.w3.org/2000/svg"
   xmlns:svg="http://www.w3.org/2000/svg">
  <defs
     id="defs14" />
  <sodipodi:namedview
     id="namedview12"
     pagecolor="#ffffff"
     bordercolor="#000000"
     borderopacity="0.25"
     inkscape:showpageshadow="2"
     inkscape:pageopacity="0.0"
     inkscape:pagecheckerboard="0"
     inkscape:deskcolor="#d1d1d1"
     showgrid="false"
     inkscape:zoom="32.09375"
     inkscape:cx="22.714703"
     inkscape:cy="22.574489"
     inkscape:window-width="2480"
     inkscape:window-height="1371"
     inkscape:window-x="80"
     inkscape:window-y="32"
     inkscape:window-maximized="1"
     inkscape:current-layer="svg10" />
  <g
     fill="none"
     id="g8"
     transform="matrix(0.79910718,0,0,0.79910718,4.4336785,3.4217856)">
    <path
       fill="#d3d3d3"
       d="m 23.5,2 a 6,6 0 0 0 -6,6 v 3 A 6.001,6.001 0 0 0 21,16.456 V 13.45 A 3.489,3.489 0 0 1 20,11 V 8 a 3.5,3.5 0 1 1 7,0 v 1.75 a 1.25,1.25 0 1 0 2.5,0 V 8 a 6,6 0 0 0 -6,-6 z"
       id="path2" />
    <path
       fill="#f9c23c"
       d="m 3,14 a 3,3 0 0 1 3,-3 h 16 a 3,3 0 0 1 3,3 v 13 a 3,3 0 0 1 -3,3 H 6 A 3,3 0 0 1 3,27 Z"
       id="path4" />
    <path
       fill="#433b6b"
       d="m 15.5,20.5 a 2.5,2.5 0 1 0 -3,0 V 24 a 1.5,1.5 0 0 0 3,0 z"
       id="path6" />
  </g>
</svg>
